<svg xmlns="http://www.w3.org/2000/svg" viewBox="0 0 200 200" width="100%" height="100%">
  <ellipse cx="100" cy="185" rx="65" ry="12" fill="#151515" opacity="0.2" />

  <polygon points="100,5 120,40 180,20 150,60 195,100 150,130 170,185 120,155 100,195 75,155 20,180 50,130 5,100 50,70 15,20 75,45" fill="#E4007C" stroke="#151515" stroke-width="6" stroke-linejoin="round" />

  <path d="M 135 110 C 185 110, 180 155, 135 155" fill="none" stroke="#151515" stroke-width="22" stroke-linecap="round" />
  <path d="M 135 110 C 185 110, 180 155, 135 155" fill="none" stroke="#6DC6D2" stroke-width="10" stroke-linecap="round" />

  <path d="M 50 110 C 50 170, 65 180, 100 180 C 135 180, 150 170, 150 110 Z" fill="#6DC6D2" stroke="#151515" stroke-width="8" stroke-linejoin="round" />

  <path d="M 65 125 C 62 145, 75 165, 90 170" fill="none" stroke="#ffffff" stroke-width="6" stroke-linecap="round" opacity="0.9" />

  <ellipse cx="100" cy="110" rx="50" ry="18" fill="#6DC6D2" stroke="#151515" stroke-width="8" />
  
  <ellipse cx="100" cy="110" rx="42" ry="12" fill="#2b2d42" stroke="#151515" stroke-width="4" />

  <ellipse cx="100" cy="114" rx="36" ry="8" fill="#8CC63F" />
  <ellipse cx="85" cy="112" rx="10" ry="3" fill="#ffffff" opacity="0.9" /> <circle cx="120" cy="60" r="16" fill="#FFD100" stroke="#151515" stroke-width="5" />
  <circle cx="114" cy="54" r="5" fill="#ffffff" />
  
  <circle cx="90" cy="75" r="12" fill="#009EE3" stroke="#151515" stroke-width="5" />
  <circle cx="86" cy="71" r="3" fill="#ffffff" />

  <circle cx="100" cy="35" r="9" fill="#8CC63F" stroke="#151515" stroke-width="4" />
  <circle cx="97" cy="32" r="2" fill="#ffffff" />
</svg>
