<svg width="200" height="205" viewBox="0 0 200 205" fill="none" xmlns="http://www.w3.org/2000/svg">
<path d="M137.5 5.125H62.5C54.2157 5.125 47.5 11.2931 47.5 18.9018V101.563C47.5 109.171 54.2157 115.339 62.5 115.339H137.5C145.784 115.339 152.5 109.171 152.5 101.563V18.9018C152.5 11.2931 145.784 5.125 137.5 5.125Z" fill="url(#paint0_linear_1_2)"/>
<path d="M146.75 16.8353H53.25C43.8612 16.8353 36.25 23.8258 36.25 32.449V133.938C36.25 142.561 43.8612 149.552 53.25 149.552H146.75C156.139 149.552 163.75 142.561 163.75 133.938V32.449C163.75 23.8258 156.139 16.8353 146.75 16.8353Z" fill="url(#paint1_linear_1_2)"/>
<path opacity="0.3" d="M137.4 44.1592H62.6C59.7833 44.1592 57.5 46.2564 57.5 48.8433C57.5 51.4303 59.7833 53.5274 62.6 53.5274H137.4C140.217 53.5274 142.5 51.4303 142.5 48.8433C142.5 46.2564 140.217 44.1592 137.4 44.1592Z" fill="white"/>
<path opacity="0.3" d="M103.4 63.6763H62.6C59.7833 63.6763 57.5 65.7735 57.5 68.3604C57.5 70.9474 59.7833 73.0446 62.6 73.0446H103.4C106.217 73.0446 108.5 70.9474 108.5 68.3604C108.5 65.7735 106.217 63.6763 103.4 63.6763Z" fill="white"/>
<path d="M156 32.6786H44C30.7452 32.6786 20 42.5475 20 54.7214V175.957C20 188.131 30.7452 198 44 198H156C169.255 198 180 188.131 180 175.957V54.7214C180 42.5475 169.255 32.6786 156 32.6786Z" fill="url(#paint2_linear_1_2)"/>
<path d="M50 74.9274C58.8366 74.9274 66 68.3481 66 60.2321C66 52.1162 58.8366 45.5369 50 45.5369C41.1634 45.5369 34 52.1162 34 60.2321C34 68.3481 41.1634 74.9274 50 74.9274Z" fill="url(#paint3_linear_1_2)"/>
<path d="M145 52.8845H85C82.2386 52.8845 80 54.9405 80 57.4768C80 60.013 82.2386 62.069 85 62.069H145C147.761 62.069 150 60.013 150 57.4768C150 54.9405 147.761 52.8845 145 52.8845Z" fill="#CBD5E1"/>
<path d="M116 69.4167H84C81.7909 69.4167 80 71.0615 80 73.0905C80 75.1195 81.7909 76.7643 84 76.7643H116C118.209 76.7643 120 75.1195 120 73.0905C120 71.0615 118.209 69.4167 116 69.4167Z" fill="#E2E8F0"/>
<path d="M138 96.9702H62C55.3726 96.9702 50 101.905 50 107.992V141.056C50 147.143 55.3726 152.077 62 152.077H138C144.627 152.077 150 147.143 150 141.056V107.992C150 101.905 144.627 96.9702 138 96.9702Z" fill="url(#paint4_linear_1_2)"/>
<path opacity="0.2" d="M100 138.301C108.284 138.301 115 132.133 115 124.524C115 116.915 108.284 110.747 100 110.747C91.7157 110.747 85 116.915 85 124.524C85 132.133 91.7157 138.301 100 138.301Z" fill="white"/>
<path d="M96 118.095L108 124.524L96 130.953V118.095Z" fill="white"/>
<path d="M125 165.854H55C52.2386 165.854 50 167.91 50 170.446C50 172.983 52.2386 175.039 55 175.039H125C127.761 175.039 130 172.983 130 170.446C130 167.91 127.761 165.854 125 165.854Z" fill="#E2E8F0"/>
<path d="M95 179.631H55C52.2386 179.631 50 181.687 50 184.223C50 186.759 52.2386 188.815 55 188.815H95C97.7614 188.815 100 186.759 100 184.223C100 181.687 97.7614 179.631 95 179.631Z" fill="#E2E8F0"/>
<path d="M170 56.5583C178.837 56.5583 186 49.9791 186 41.8631C186 33.7471 178.837 27.1679 170 27.1679C161.163 27.1679 154 33.7471 154 41.8631C154 49.9791 161.163 56.5583 170 56.5583Z" fill="url(#paint5_linear_1_2)"/>
<path d="M170 45.5369C172.209 45.5369 174 43.8921 174 41.8631C174 39.8341 172.209 38.1893 170 38.1893C167.791 38.1893 166 39.8341 166 41.8631C166 43.8921 167.791 45.5369 170 45.5369Z" fill="white"/>
<defs>
<linearGradient id="paint0_linear_1_2" x1="47.5" y1="5.125" x2="47.5" y2="115.339" gradientUnits="userSpaceOnUse">
<stop stop-color="#94A3B8"/>
<stop offset="1" stop-color="#64748B"/>
</linearGradient>
<linearGradient id="paint1_linear_1_2" x1="36.25" y1="16.8353" x2="36.25" y2="149.552" gradientUnits="userSpaceOnUse">
<stop stop-color="#CBD5E1"/>
<stop offset="1" stop-color="#94A3B8"/>
</linearGradient>
<linearGradient id="paint2_linear_1_2" x1="20" y1="32.6786" x2="20" y2="198" gradientUnits="userSpaceOnUse">
<stop stop-color="white"/>
<stop offset="1" stop-color="#F1F5F9"/>
</linearGradient>
<linearGradient id="paint3_linear_1_2" x1="34" y1="45.5369" x2="63.2845" y2="77.4215" gradientUnits="userSpaceOnUse">
<stop stop-color="#F472B6"/>
<stop offset="1" stop-color="#BE185D"/>
</linearGradient>
<linearGradient id="paint4_linear_1_2" x1="50" y1="96.9702" x2="96.5881" y2="181.511" gradientUnits="userSpaceOnUse">
<stop stop-color="#3B82F6"/>
<stop offset="1" stop-color="#1D4ED8"/>
</linearGradient>
<linearGradient id="paint5_linear_1_2" x1="154" y1="27.1679" x2="183.284" y2="59.0524" gradientUnits="userSpaceOnUse">
<stop stop-color="#A855F7"/>
<stop offset="1" stop-color="#7E22CE"/>
</linearGradient>
</defs>
</svg>
