<svg width="512" height="512" viewBox="0 0 512 512" fill="none" xmlns="http://www.w3.org/2000/svg">
<path d="M120 8C148.035 7.34608 175.254 10.2266 196.617 30.4219C210.903 45.8789 216.322 63.4872 216.688 84.25C216.721 85.5925 216.755 86.9349 216.791 88.2773C216.873 91.5181 216.942 94.7587 217 98C217.869 97.0983 217.869 97.0983 218.756 96.1785C234.382 80.2135 255.288 72.2148 277.566 71.8242C283.713 71.7852 289.855 71.8567 296 72C296.455 84.4569 296.103 95.1043 292 107C291.723 107.887 291.446 108.774 291.16 109.688C287.802 119.343 281.345 127.992 274 135C274.629 135.135 275.258 135.271 275.906 135.41C282.833 137.152 287.026 139.945 292 145C293.485 146.485 293.485 146.485 295 148C325.195 117.805 325.195 117.805 356 87C354.35 85.35 352.7 83.7 351 82C344.612 75.1333 343.521 69.7134 343.695 60.4453C344.391 52.5832 348.048 48.4504 353.902 43.4453C360.404 38.9659 367.371 39.3254 375 40C381.549 41.653 386.404 46.4029 390 52C390.691 54.7539 390.691 54.7539 391 57C392.485 56.505 392.485 56.505 394 56C401.872 55.377 408.612 56.2542 416 59C417.702 57.4324 419.386 55.8454 421.063 54.25C422.002 53.3683 422.942 52.4866 423.91 51.5781C426.264 49.2665 426.264 49.2665 425.871 46.7969C425.256 45.5272 424.631 44.262 424 43C422.983 32.1873 424.393 24.6027 431.313 16.1875C437.8 10.9071 443.2 7.86529 451.688 7.5625C452.867 7.50191 454.047 7.44133 455.262 7.37891C463.422 8.73473 469.476 16.1779 475.113 21.8477C475.85 22.582 476.586 23.3163 477.344 24.0729C478.887 25.6142 480.427 27.1581 481.965 28.7043C484.316 31.0663 486.678 33.4174 489.041 35.7676C490.545 37.2728 492.048 38.7786 493.551 40.2852C494.606 41.3338 494.606 41.3338 495.682 42.4036C501.087 47.861 504.429 51.7032 504.5 59.6875C504.318 67.969 501.892 73.4832 496.688 79.8125C490.009 85.2486 484.744 88.142 476 88.1875C474.763 88.2017 473.525 88.2159 472.25 88.2305C469 88 469 88 466 86C461.936 86.1931 459.946 88.7481 457.25 91.5625C456.451 92.3888 455.652 93.2151 454.828 94.0664C454.225 94.7045 453.622 95.3426 453 96C453.495 96.99 453.99 97.98 454.5 99C457.199 106.233 457.755 117.199 454.563 124.375C447.696 134.759 437.73 143.394 428.938 152.125C427.678 153.38 426.418 154.635 425.158 155.891C422.108 158.93 419.055 161.966 416 165C416.306 165.609 416.611 166.218 416.926 166.845C418.137 169.275 419.296 171.724 420.438 174.188C420.849 175.068 421.26 175.948 421.684 176.855C423 180 423 180 423.398 181.928C425.373 190.479 432.134 195.748 438.25 201.562C440.489 203.725 442.721 205.896 444.953 208.066C445.759 208.847 445.759 208.847 446.581 209.644C473.222 235.575 491.585 269.916 500 306C500.198 306.815 500.395 307.629 500.599 308.468C506.97 335.794 506.713 367.781 500 395C499.679 396.334 499.679 396.334 499.351 397.695C493.962 419.471 485.168 439.97 473.516 459.125C473.133 459.762 472.75 460.399 472.355 461.055C471.323 462.754 470.264 464.436 469.203 466.117C467.699 468.896 467.699 468.896 468.672 471.508C469.11 472.33 469.548 473.153 470 474C472.548 480.649 472.67 486.951 472 494C469.751 499.017 466.785 501.391 462 504C458.782 504.568 455.621 504.54 452.359 504.508C450.912 504.517 450.912 504.517 449.436 504.527C446.207 504.543 442.979 504.53 439.75 504.518C437.434 504.523 435.118 504.53 432.801 504.539C426.512 504.557 420.223 504.55 413.934 504.537C407.354 504.527 400.775 504.537 394.195 504.543C382.438 504.551 370.681 504.538 358.923 504.518C348.266 504.5 337.61 504.503 326.953 504.521C314.573 504.543 302.193 504.551 289.812 504.539C283.261 504.533 276.709 504.532 270.157 504.545C263.998 504.557 257.839 504.549 251.68 504.526C249.418 504.52 247.157 504.522 244.895 504.531C241.81 504.542 238.726 504.528 235.641 504.508C234.296 504.521 234.296 504.521 232.923 504.535C227.454 504.466 224.345 503.631 220 500C215.05 494.673 215.52 489.492 215.75 482.625C215.768 481.603 215.786 480.581 215.805 479.527C215.852 477.017 215.917 474.509 216 472C214.9 472.046 213.801 472.093 212.668 472.141C200.338 472.508 190.83 471.199 181.066 462.973C173.121 455.387 168.014 446.555 167.519 435.387C167.508 433.384 167.518 431.381 167.546 429.378C167.545 428.274 167.545 427.171 167.544 426.033C167.547 422.424 167.578 418.816 167.609 415.207C167.617 412.689 167.623 410.172 167.627 407.654C167.64 401.729 167.672 395.804 167.712 389.88C167.761 382.463 167.783 375.047 167.805 367.631C167.847 354.42 167.918 341.21 168 328C152.16 328 136.32 328 120 328C120.031 333.048 120.031 333.048 120.064 338.198C120.13 349.342 120.174 360.486 120.207 371.63C120.228 378.384 120.256 385.138 120.302 391.891C120.346 398.414 120.369 404.937 120.38 411.46C120.387 413.943 120.401 416.427 120.423 418.91C120.452 422.399 120.456 425.888 120.454 429.378C120.469 430.395 120.483 431.412 120.498 432.46C120.434 443.694 116.767 452.864 109 461C99.7729 469.809 90.1496 472.626 77.6353 472.471C65.8081 472.002 57.159 467.452 49.0274 458.934C41.5877 450.104 39.3857 440.713 39.5459 429.378C39.5453 428.274 39.5448 427.171 39.5442 426.033C39.5469 422.424 39.5779 418.816 39.6094 415.207C39.6169 412.689 39.6226 410.172 39.6266 407.654C39.6402 401.729 39.6717 395.804 39.712 389.88C39.7613 382.463 39.7826 375.047 39.8047 367.631C39.8475 354.42 39.9149 341.21 40 328C38.227 328.256 36.4566 328.53 34.6875 328.812C33.7014 328.963 32.7153 329.114 31.6992 329.27C28.8237 330.048 27.762 330.645 26 333C24.8535 336.44 24.8608 339.109 24.8418 342.739C24.8369 343.427 24.8319 344.116 24.8269 344.825C24.8115 347.138 24.8031 349.45 24.7947 351.762C24.7851 353.418 24.7751 355.074 24.7647 356.729C24.7376 361.229 24.7166 365.729 24.6967 370.228C24.6749 374.929 24.6475 379.629 24.6207 384.33C24.5707 393.233 24.5258 402.137 24.4826 411.04C24.4333 421.176 24.3783 431.311 24.323 441.446C24.2091 462.297 24.1025 483.149 24 504C18.72 504 13.44 504 8.00003 504C7.9074 481.321 7.83603 458.642 7.79278 435.963C7.77216 425.432 7.74406 414.902 7.69827 404.372C7.65838 395.192 7.63259 386.013 7.62368 376.833C7.61847 371.974 7.60624 367.115 7.57711 362.255C7.5499 357.678 7.5416 353.102 7.5476 348.525C7.5465 346.848 7.53858 345.171 7.52321 343.494C7.37317 326.28 7.37317 326.28 13.9649 318.758C14.9413 317.95 14.9413 317.95 15.9375 317.125C16.5859 316.571 17.2343 316.016 17.9024 315.445C22.7561 312.101 27.0415 311.733 32.8125 311.875C35.1844 311.916 37.5563 311.957 40 312C40 306.72 40 301.44 40 296C38.02 296 36.04 296 34 296C29.4634 293.641 25.8736 290.833 24 286C23.4057 281.326 23.4422 276.705 23.5 272C23.4846 270.742 23.4691 269.484 23.4532 268.188C23.5024 256.558 23.5024 256.558 28 252C33.0821 247.835 36.738 247.421 43.0313 247.482C43.9198 247.475 44.8084 247.468 45.7239 247.461C48.6496 247.444 51.5743 247.455 54.5 247.469C56.5397 247.466 58.5795 247.462 60.6192 247.457C64.8895 247.451 69.1595 247.46 73.4297 247.479C78.8975 247.501 84.3645 247.488 89.8322 247.464C94.0427 247.45 98.2531 247.454 102.464 247.465C104.479 247.467 106.495 247.464 108.511 247.455C111.331 247.445 114.149 247.46 116.969 247.482C117.798 247.474 118.627 247.466 119.482 247.458C126.045 247.554 129.689 249.658 134.344 254.375C136.967 260.115 136.577 265.769 136.5 272C136.523 273.887 136.523 273.887 136.547 275.812C136.498 287.24 136.498 287.24 132 292C127.428 295.777 126.246 296 120 296C120 301.28 120 306.56 120 312C135.84 312 151.68 312 168 312C168 306.72 168 301.44 168 296C166.02 296 164.04 296 162 296C157.463 293.641 153.874 290.833 152 286C151.406 281.326 151.442 276.705 151.5 272C151.477 270.113 151.477 270.113 151.453 268.188C151.502 256.558 151.502 256.558 156 252C161.064 247.848 164.632 247.447 170.898 247.609C171.639 247.613 172.38 247.617 173.144 247.622C175.888 247.642 178.631 247.698 181.375 247.75C187.521 247.833 193.668 247.915 200 248C200 232.16 200 216.32 200 200C192.74 200 185.48 200 178 200C162.653 197.002 149.95 191.335 139 180C138.428 179.413 137.855 178.827 137.266 178.223C126.771 166.727 120.501 150.523 120 135C119.319 134.794 118.639 134.588 117.938 134.375C112.067 131.627 107.321 127.458 104.66 121.469C102.884 114.825 102.713 106.945 105.5 100.562C109.02 94.7376 114.49 90.0178 121 88C128.836 87.1949 136.619 86.8754 143 92C148.094 96.851 151.747 101.219 152.23 108.445C152.216 109.66 152.202 110.874 152.188 112.125C152.178 113.954 152.178 113.954 152.168 115.82C152 119 152 119 151 122C151.536 122.003 152.073 122.005 152.625 122.008C170.975 122.913 186.419 133.419 199 146C199.33 126.86 199.66 107.72 200 88C192.74 88 185.48 88 178 88C162.653 85.0024 149.95 79.3348 139 68C138.428 67.4135 137.855 66.827 137.266 66.2227C127.236 55.2367 119.805 38.1922 119.902 23.1367C119.907 21.8074 119.907 21.8074 119.912 20.4512C119.925 19.0832 119.925 19.0832 119.938 17.6875C119.942 16.7562 119.947 15.8248 119.951 14.8652C119.963 12.5768 119.979 10.2884 120 8ZM238 151C227.11 151.495 227.11 151.495 216 152C216 183.68 216 215.36 216 248C234.81 248.495 234.81 248.495 254 249C261.164 253.776 261.164 253.776 263 258C263.615 262.628 263.464 267.273 263.438 271.938C263.468 273.831 263.468 273.831 263.498 275.764C263.492 287.268 263.492 287.268 259 292C255.119 294.962 253.13 295.145 248 296C248 301.28 248 306.56 248 312C258.56 312 269.12 312 280 312C280 317.28 280 322.56 280 328C269.44 328 258.88 328 248 328C248 333.28 248 338.56 248 344C249.573 344.004 251.147 344.007 252.768 344.011C267.599 344.048 282.43 344.106 297.262 344.184C304.887 344.224 312.511 344.256 320.136 344.271C326.784 344.284 333.432 344.311 340.08 344.355C343.598 344.377 347.116 344.393 350.634 344.392C354.568 344.391 358.5 344.421 362.434 344.454C364.172 344.447 364.172 344.447 365.945 344.439C373.596 344.537 379.104 345.57 385.023 350.781C385.469 351.348 385.915 351.916 386.375 352.5C386.837 353.067 387.298 353.634 387.773 354.219C389 356 389 356 389.699 358.07C391.775 361.149 395.015 361.49 398.438 362.375C409.043 365.419 417.659 369.531 425 378C434.505 369.456 438.456 349.351 439.177 336.958C439.876 300.231 431.501 270.978 405.574 243.621C404.725 242.756 403.875 241.891 403 241C402.181 240.125 401.363 239.249 400.52 238.348C393.56 231.683 388.191 231.217 379.039 231.156C371.354 231.042 365.055 227.462 359 223C356.042 224.329 353.995 225.768 351.735 228.085C351.121 228.71 350.506 229.334 349.873 229.977C349.219 230.651 348.565 231.325 347.891 232.02C346.482 233.449 345.073 234.878 343.664 236.307C341.459 238.555 339.256 240.807 337.056 243.061C334.924 245.241 332.783 247.412 330.641 249.582C329.995 250.25 329.348 250.918 328.683 251.606C321.375 258.992 314.891 263.217 304.313 263.312C287.895 263.296 278.674 250.872 267.694 239.934C266.178 238.428 264.653 236.934 263.127 235.439C254.872 227.274 248.804 220.485 248.625 208.438C248.581 198.976 251.136 192.701 257.813 185.875C258.863 184.903 259.921 183.939 261 183C260.278 182.299 259.556 181.598 258.813 180.875C253.691 175.724 249.282 171.17 248.77 163.59C248.784 162.385 248.798 161.179 248.813 159.938C248.819 158.73 248.825 157.522 248.832 156.277C248.967 153.649 249.223 151.494 250 149C245.952 148.892 245.952 148.892 238 151ZM248 392C247.83 407.675 247.83 407.675 247.702 423.351C247.673 425.336 247.642 427.32 247.609 429.305C247.608 430.312 247.607 431.318 247.606 432.356C247.466 439.367 245.933 444.668 243 451C242.01 453.475 242.01 453.475 241 456C274.99 456 308.98 456 344 456C342.02 453.36 340.04 450.72 338 448C336.682 445.683 335.426 443.33 334.25 440.938C333.392 439.219 333.392 439.219 332.516 437.465C329.384 430.306 328.636 424.087 328.625 416.375C328.601 415.466 328.576 414.557 328.551 413.621C328.516 405.29 330.349 400.614 333 392C304.95 392 276.9 392 248 392Z" fill="black"/>
<path d="M403 72C408.102 74.9065 412.005 78.7269 416.113 82.8828C416.768 83.5383 417.423 84.1938 418.098 84.8691C419.473 86.2468 420.845 87.6269 422.215 89.0093C424.318 91.1305 426.429 93.2435 428.541 95.3555C429.878 96.6975 431.215 98.0399 432.551 99.3828C433.183 100.016 433.815 100.65 434.467 101.302C435.338 102.183 435.338 102.183 436.228 103.083C436.74 103.599 437.253 104.115 437.781 104.648C440.198 107.33 440.655 110.124 440.577 113.7C439.823 116.706 438.516 118.045 436.387 120.293C435.568 121.166 434.75 122.038 433.906 122.937C433.445 123.421 432.983 123.906 432.508 124.404C430.866 126.142 429.252 127.903 427.641 129.668C424.526 133.069 421.358 136.413 418.163 139.737C416.837 141.13 415.525 142.538 414.228 143.958C403.354 155.841 403.354 155.841 397.606 156.23C394.526 155.436 391.87 154.356 389 153C377.906 151.553 368.75 154.493 359.625 160.813C351.577 167.394 345.913 176.859 344.586 187.238C344.469 191.663 344.441 195.527 346.031 199.718C347.182 202.959 347.922 205.553 348 209C345.635 213.229 342.326 216.103 338.688 219.25C337.768 220.102 336.848 220.954 335.9 221.832C333.63 223.926 331.333 225.977 329 228C325.596 226.529 323.387 224.631 320.782 222.009C319.962 221.189 319.141 220.368 318.296 219.522C317.42 218.636 316.543 217.749 315.641 216.836C314.736 215.929 313.832 215.022 312.9 214.087C310.502 211.681 308.11 209.27 305.719 206.857C303.276 204.393 300.827 201.935 298.379 199.477C293.581 194.656 288.788 189.83 284 185C285.516 181.438 287.6 179.151 290.327 176.426C291.69 175.056 291.69 175.056 293.08 173.66C294.09 172.656 295.1 171.652 296.109 170.648C297.171 169.585 298.232 168.522 299.293 167.459C302.172 164.574 305.058 161.696 307.945 158.819C310.964 155.809 313.977 152.794 316.991 149.78C322.052 144.72 327.117 139.664 332.184 134.611C338.047 128.763 343.905 122.91 349.76 117.055C355.388 111.426 361.02 105.799 366.652 100.175C369.052 97.7789 371.451 95.3821 373.849 92.9846C376.67 90.1645 379.493 87.3469 382.319 84.5313C383.358 83.4957 384.395 82.4593 385.432 81.4219C386.843 80.0101 388.258 78.6017 389.673 77.1934C390.465 76.4031 391.257 75.6128 392.073 74.7986C395.592 71.5139 398.255 71.6046 403 72Z" fill="#CBD0D8"/>
<path d="M420 209C425.369 211.342 428.992 215.652 433.062 219.75C433.916 220.608 434.769 221.466 435.648 222.351C442.361 229.188 448.442 236.204 454 244C454.41 244.56 454.82 245.12 455.242 245.697C477.152 275.82 488.478 312.824 488.375 349.938C488.375 350.648 488.375 351.359 488.374 352.092C488.318 371.337 485.247 389.784 479 408C478.664 408.996 478.664 408.996 478.321 410.012C474.746 420.463 470.181 430.257 465 440C464.576 440.805 464.151 441.609 463.714 442.438C462.386 444.945 461.04 447.443 459.688 449.938C459.267 450.726 458.846 451.514 458.413 452.326C458.013 453.052 457.612 453.779 457.199 454.527C456.671 455.498 456.671 455.498 456.132 456.488C455 458 455 458 452 459C451.183 458.704 450.365 458.407 449.523 458.102C444.58 456.556 439.777 456.535 434.625 456.375C433.092 456.317 433.092 456.317 431.527 456.258C429.018 456.164 426.509 456.078 424 456C425.497 453.457 427.023 450.967 428.684 448.527C437.431 435.61 439.958 422.454 439 407C438.353 403.998 437.561 401.169 436.559 398.27C435.458 393.798 437.536 390.816 439.628 386.876C444.555 377.571 448.14 368.123 451 358C451.212 357.259 451.423 356.519 451.642 355.756C460.746 322.655 453.518 288.189 437.168 258.676C430.871 247.725 419.668 230.834 408 225C408 224.34 408 223.68 408 223C408.866 222.319 409.733 221.639 410.625 220.938C414.75 217.677 417.274 213.436 420 209Z" fill="#A8B0BB"/>
<path d="M184 328C199.84 328 215.68 328 232 328C232.201 354.802 232.201 354.802 232.244 366.258C232.274 374.064 232.309 381.87 232.377 389.676C232.432 395.972 232.461 402.267 232.474 408.563C232.484 410.961 232.502 413.359 232.529 415.756C232.565 419.124 232.57 422.491 232.568 425.859C232.586 426.842 232.604 427.825 232.622 428.839C232.565 436.544 230.499 443.082 225.29 448.915C220.04 453.903 214.177 456.097 207 456.438C199.334 456.133 194.8 453.144 189.625 447.625C183.832 441.094 183.713 434.652 183.773 426.313C183.773 425.249 183.772 424.185 183.772 423.089C183.773 419.582 183.789 416.076 183.805 412.57C183.808 410.135 183.811 407.7 183.813 405.265C183.821 398.863 183.841 392.461 183.863 386.06C183.887 378.375 183.896 370.69 183.908 363.004C183.927 351.336 183.965 339.668 184 328Z" fill="#EFCFB3"/>
<path d="M56 328C71.84 328 87.68 328 104 328C104.201 354.802 104.201 354.802 104.244 366.258C104.274 374.064 104.309 381.87 104.377 389.676C104.432 395.972 104.461 402.267 104.474 408.563C104.484 410.961 104.502 413.359 104.529 415.756C104.565 419.124 104.57 422.491 104.568 425.859C104.586 426.842 104.604 427.825 104.622 428.839C104.565 436.544 102.499 443.082 97.2901 448.915C92.04 453.903 86.1767 456.097 79 456.438C71.334 456.133 66.7999 453.144 61.625 447.625C55.8321 441.094 55.7129 434.652 55.773 426.313C55.7727 425.249 55.7724 424.185 55.7721 423.089C55.7735 419.582 55.789 416.076 55.8047 412.57C55.8084 410.135 55.8113 407.7 55.8133 405.265C55.8209 398.863 55.8405 392.461 55.8627 386.06C55.8868 378.375 55.8959 370.69 55.9076 363.004C55.927 351.336 55.9653 339.668 56 328Z" fill="#EFCFB3"/>
<path d="M404 381C414.439 387.25 420.629 396.447 424 408C425.332 419.789 422.759 431.393 415.68 441.008C408.717 449.265 398.817 455.322 387.848 456.273C374.349 456.636 364.352 452.697 354.355 443.484C346.111 434.886 343.552 423.026 343.656 411.484C344.698 400.928 350.681 391.779 358.375 384.75C371.849 373.804 388.778 373.141 404 381Z" fill="#F8D36E"/>
<path d="M232 472C259.538 471.93 287.075 471.877 314.613 471.845C327.399 471.829 340.185 471.808 352.971 471.774C364.114 471.744 375.257 471.724 386.4 471.718C392.302 471.714 398.203 471.705 404.104 471.683C409.658 471.662 415.211 471.656 420.764 471.661C422.803 471.66 424.842 471.654 426.881 471.642C429.664 471.628 432.447 471.631 435.23 471.639C436.441 471.626 436.441 471.626 437.677 471.613C444.071 471.664 448.137 473.178 452.812 477.75C455 481 455 481 456 488C382.08 488 308.16 488 232 488C232 482.72 232 477.44 232 472Z" fill="#A9B1BC"/>
<path d="M71.8906 138.742C80.2353 143.718 85.4245 150.606 88 160C88.9985 171.1 88.3495 180.735 81.25 189.813C75.5803 195.883 68.5274 199.597 60.2304 200.336C52.4494 200.51 45.7215 200.329 39 196C38.2936 195.564 37.5872 195.129 36.8594 194.68C29.9535 189.999 26.2028 184 24 176C23.0015 164.9 23.6505 155.266 30.75 146.188C41.0479 135.161 58.2961 132.219 71.8906 138.742Z" fill="black"/>
<path d="M55.8906 26.7422C64.2353 31.7181 69.4245 38.6057 72 48C72.9985 59.0998 72.3495 68.7345 65.25 77.8125C59.5803 83.8831 52.5274 87.5965 44.2304 88.336C36.4494 88.5097 29.7215 88.3287 23 84C22.2936 83.5643 21.5872 83.1286 20.8594 82.6797C13.9535 77.9991 10.2028 71.9998 7.99998 64C7.00146 52.9002 7.65051 43.2655 14.75 34.1875C25.0479 23.1615 42.2961 20.2187 55.8906 26.7422Z" fill="black"/>
<path d="M123.438 185.5C129.262 189.02 133.982 194.49 136 201C136.805 208.836 137.125 216.619 132 223C127.196 228.045 122.838 231.606 115.731 232.336C107.214 232.43 101.324 232.118 95.0352 226.129C88.6534 219.225 87.5196 213.798 87.6954 204.445C88.3906 196.583 92.0476 192.45 97.9024 187.445C104.967 182.578 115.594 182.024 123.438 185.5Z" fill="black"/>
<path d="M251.438 9.49998C257.262 13.0199 261.982 18.4896 264 25C264.805 32.8361 265.125 40.6192 260 47C255.196 52.0452 250.838 55.6056 243.731 56.3359C235.214 56.4298 229.324 56.1177 223.035 50.1289C216.653 43.225 215.52 37.7983 215.695 28.4453C216.391 20.5832 220.048 16.4504 225.902 11.4453C232.967 6.57784 243.594 6.02402 251.438 9.49998Z" fill="black"/>
<path d="M394.055 393.898C400.556 397.58 405.933 402.682 408 410C409.264 418.016 407.613 424.36 403 431C398.289 436.42 392.651 439.399 385.551 440.316C379.519 440.603 374.868 439.651 370 436C363.366 429.801 360.052 424.767 359.625 415.625C359.798 408.901 361.455 404.673 366.094 399.801C374.339 392.146 383.27 389.226 394.055 393.898Z" fill="#030201"/>
<path d="M394.055 169.898C400.556 173.58 405.933 178.682 408 186C409.264 194.016 407.613 200.36 403 207C398.289 212.42 392.651 215.399 385.551 216.316C379.519 216.603 374.868 215.651 370 212C363.366 205.801 360.052 200.767 359.625 191.625C359.798 184.901 361.455 180.673 366.094 175.801C374.339 168.146 383.27 165.226 394.055 169.898Z" fill="#F8D46E"/>
<path d="M248 360C288.59 360 329.18 360 371 360C371.495 360.99 371.495 360.99 372 362C371.406 362.147 370.811 362.294 370.199 362.445C362.255 364.595 354.33 367.664 348.434 373.57C344.4 376.939 340.481 376.67 335.415 376.568C334.468 376.568 333.521 376.569 332.545 376.57C329.428 376.566 326.312 376.528 323.195 376.488C321.029 376.479 318.863 376.472 316.697 376.467C311.005 376.448 305.314 376.399 299.622 376.343C293.811 376.292 287.999 376.269 282.188 376.244C270.791 376.191 259.396 376.105 248 376C248 370.72 248 365.44 248 360Z" fill="#CBD0D8"/>
<path d="M137 137C153.598 136.009 170.491 142.167 183 153C192.094 161.519 198.577 171.306 199 184C180.687 184.748 165.828 182.356 151.812 169.5C143.938 161.291 137 148.546 137 137Z" fill="#B1D97D"/>
<path d="M279 89C278.483 94.798 277.353 99.5594 275 104.875C274.695 105.568 274.389 106.262 274.074 106.976C271.107 113.35 267.139 118.202 262 123C261.487 123.508 260.974 124.016 260.445 124.539C248.587 135.459 232.28 136.578 217 136C217.426 123.232 223.966 113.647 233 105C245.231 93.9798 262.585 87.8729 279 89Z" fill="#B1DA7D"/>
<path d="M137 25C153.3 24.0263 170.625 30.422 183.188 40.8086C190.667 47.8487 198.715 59.1686 199.102 69.793C199.068 70.5213 199.035 71.2496 199 72C180.687 72.7475 165.828 70.3562 151.812 57.5C143.938 49.2915 137 36.5456 137 25Z" fill="#B1DA7D"/>
<path d="M168 264C194.4 264 220.8 264 248 264C248 269.28 248 274.56 248 280C221.6 280 195.2 280 168 280C168 274.72 168 269.44 168 264Z" fill="#DFB28B"/>
<path d="M40 264C66.4 264 92.8 264 120 264C120 269.28 120 274.56 120 280C93.6 280 67.2 280 40 280C40 274.72 40 269.44 40 264Z" fill="#DFB28B"/>
<path d="M271 196C274.404 197.471 276.613 199.369 279.218 201.991C280.449 203.222 280.449 203.222 281.704 204.478C282.58 205.364 283.457 206.251 284.359 207.164C285.264 208.071 286.168 208.978 287.1 209.913C289.498 212.319 291.89 214.73 294.281 217.143C296.724 219.607 299.173 222.065 301.621 224.523C306.419 229.344 311.212 234.17 316 239C314.034 243.342 311.288 245.856 307 248C301.789 248.592 298.987 247.121 295 244C292.624 241.877 290.38 239.637 288.141 237.371C287.195 236.425 287.195 236.425 286.23 235.459C284.907 234.133 283.586 232.804 282.267 231.473C280.248 229.435 278.22 227.405 276.191 225.377C274.903 224.084 273.615 222.79 272.328 221.496C271.723 220.89 271.118 220.283 270.494 219.659C269.933 219.091 269.372 218.524 268.794 217.939C268.301 217.443 267.809 216.946 267.301 216.435C264.341 213.171 263.408 210.613 263.465 206.207C264.511 201.891 267.877 198.996 271 196Z" fill="#CACFD7"/>
<path d="M454 25C455.899 26.3707 455.899 26.3707 457.705 28.1394C458.388 28.8007 459.072 29.4619 459.776 30.1432C460.497 30.863 461.218 31.5827 461.961 32.3242C462.711 33.0633 463.461 33.8023 464.234 34.5637C465.814 36.128 467.389 37.6976 468.958 39.2722C471.368 41.6807 473.806 44.0583 476.246 46.4356C477.778 47.9592 479.308 49.4845 480.836 51.0117C481.569 51.7213 482.302 52.4309 483.058 53.162C487.986 58.1821 487.986 58.1821 488.057 62.3274C486.396 66.5269 484.489 69.1811 480.5 71.375C477.719 72.0704 476.664 71.9469 474 71C472.221 69.6294 472.221 69.6294 470.409 67.8606C469.725 67.1993 469.042 66.5381 468.337 65.8568C467.611 65.1371 466.885 64.4173 466.137 63.6758C465.385 62.9368 464.634 62.1978 463.86 61.4363C462.275 59.8709 460.694 58.3013 459.117 56.7278C456.696 54.3214 454.251 51.9429 451.803 49.5645C450.267 48.0407 448.732 46.5154 447.199 44.9883C446.463 44.2787 445.727 43.5691 444.968 42.838C440.016 37.8177 440.016 37.8177 439.937 33.6726C441.497 29.7519 443.489 27.0725 446.938 24.625C449.67 23.7968 451.263 24.2266 454 25Z" fill="#A8B0BB"/>
<path d="M61 152C65.9867 154.493 69.4968 157.994 72 163C72.5436 167.955 72.5644 171.871 70.3125 176.375C67.1475 179.968 63.788 183.694 58.8281 184.238C52.9815 184.407 49.5681 184.024 45 180C40.6011 175.007 39.6432 172.09 39.7187 165.539C40.2698 160.564 43.007 157.875 46.625 154.688C51.2814 151.379 55.3953 151.379 61 152Z" fill="#66D0ED"/>
<path d="M45 40C49.9867 42.4934 53.4968 45.9935 56 51C56.5436 55.9548 56.5644 59.8713 54.3125 64.375C51.1475 67.9678 47.788 71.6941 42.8281 72.2383C36.9815 72.4066 33.5681 72.0243 29 68C24.6011 63.0066 23.6432 60.0899 23.7187 53.5391C24.2698 48.564 27.007 45.8748 30.625 42.6875C35.2814 39.379 39.3953 39.3792 45 40Z" fill="#66D0ED"/>
<path d="M184 296C199.84 296 215.68 296 232 296C232 301.28 232 306.56 232 312C216.16 312 200.32 312 184 312C184 306.72 184 301.44 184 296Z" fill="#F0D0B4"/>
<path d="M56 296C71.84 296 87.68 296 104 296C104 301.28 104 306.56 104 312C88.16 312 72.32 312 56 312C56 306.72 56 301.44 56 296Z" fill="#F0D0B4"/>
<path d="M439 60C442.681 61.5364 444.988 63.7815 447.75 66.625C448.549 67.4423 449.348 68.2595 450.172 69.1016C450.775 69.728 451.378 70.3545 452 71C450.464 74.6807 448.218 76.9878 445.375 79.75C444.558 80.5492 443.74 81.3484 442.898 82.1719C442.272 82.7752 441.645 83.3784 441 84C437.319 82.4636 435.012 80.2185 432.25 77.375C431.451 76.5577 430.652 75.7405 429.828 74.8984C429.225 74.272 428.622 73.6455 428 73C429.536 69.3193 431.782 67.0122 434.625 64.25C435.442 63.4508 436.26 62.6516 437.102 61.8281C438.041 60.9232 438.041 60.9232 439 60Z" fill="#A8B0BB"/>
<path d="M384 407.375C388.074 408.224 389.544 409.677 392 413C392.625 416 392.625 416 392 419C389.544 422.323 388.074 423.776 384 424.625C379.926 423.776 378.456 422.323 376 419C375.375 416 375.375 416 376 413C378.456 409.677 379.926 408.224 384 407.375Z" fill="#C2C7CE"/>
<path d="M112 199.375C116.074 200.224 117.544 201.677 120 205C120.625 208 120.625 208 120 211C117.544 214.323 116.074 215.776 112 216.625C107.926 215.776 106.456 214.323 104 211C103.375 208 103.375 208 104 205C106.456 201.677 107.926 200.224 112 199.375Z" fill="#64CBE8"/>
<path d="M384 183.375C388.074 184.224 389.544 185.677 392 189C392.625 192 392.625 192 392 195C389.544 198.323 388.074 199.776 384 200.625C379.926 199.776 378.456 198.323 376 195C375.375 192 375.375 192 376 189C378.456 185.677 379.926 184.224 384 183.375Z" fill="#0B0A05"/>
<path d="M272 151.375C276.074 152.224 277.544 153.677 280 157C280.625 160 280.625 160 280 163C277.544 166.323 276.074 167.776 272 168.625C267.926 167.776 266.456 166.323 264 163C263.375 160 263.375 160 264 157C266.456 153.677 267.926 152.224 272 151.375Z" fill="#64CBE8"/>
<path d="M128 103.375C132.074 104.224 133.544 105.677 136 109C136.625 112 136.625 112 136 115C133.544 118.323 132.074 119.776 128 120.625C123.926 119.776 122.456 118.323 120 115C119.375 112 119.375 112 120 109C122.456 105.677 123.926 104.224 128 103.375Z" fill="#64CBE8"/>
<path d="M368 55.375C372.074 56.2238 373.544 57.6773 376 61C376.625 64 376.625 64 376 67C373.544 70.3227 372.074 71.7762 368 72.625C363.926 71.7762 362.456 70.3227 360 67C359.375 64 359.375 64 360 61C362.456 57.6773 363.926 56.2238 368 55.375Z" fill="#64CBE8"/>
<path d="M240 23.375C244.074 24.2238 245.544 25.6773 248 29C248.625 32 248.625 32 248 35C245.544 38.3227 244.074 39.7762 240 40.625C235.926 39.7762 234.456 38.3227 232 35C231.375 32 231.375 32 232 29C234.456 25.6773 235.926 24.2238 240 23.375Z" fill="#64CBE8"/>
</svg>
