<svg width="130" height="136" viewBox="0 0 130 136" fill="none" xmlns="http://www.w3.org/2000/svg">
<path d="M119.844 131.75H10.1562C9.61753 131.75 9.10087 131.526 8.71994 131.128C8.33901 130.729 8.125 130.189 8.125 129.625V59.5C8.125 58.9364 8.33901 58.3959 8.71994 57.9974C9.10087 57.5989 9.61753 57.375 10.1562 57.375H119.844C120.382 57.375 120.899 57.5989 121.28 57.9974C121.661 58.3959 121.875 58.9364 121.875 59.5V129.625C121.875 130.189 121.661 130.729 121.28 131.128C120.899 131.526 120.382 131.75 119.844 131.75Z" fill="#03A65A"/>
<path d="M111.719 46.75H18.2812C17.7425 46.75 17.2259 46.9739 16.8449 47.3724C16.464 47.7709 16.25 48.3114 16.25 48.875V121.125C16.25 121.689 16.464 122.229 16.8449 122.628C17.2259 123.026 17.7425 123.25 18.2812 123.25H48.1203C53.2579 123.245 58.3313 124.443 62.9688 126.756C63.3141 126.898 63.6594 127.068 64.0047 127.266C64.2885 127.416 64.601 127.496 64.9187 127.5C65.2352 127.506 65.5484 127.433 65.8328 127.288L66.2594 127.054C66.5031 126.926 66.7672 126.799 67.0312 126.693C71.6339 124.434 76.6538 123.259 81.7375 123.25H111.719C112.257 123.25 112.774 123.026 113.155 122.628C113.536 122.229 113.75 121.689 113.75 121.125V48.875C113.75 48.3114 113.536 47.7709 113.155 47.3724C112.774 46.9739 112.257 46.75 111.719 46.75Z" fill="#FDFEFF"/>
<path d="M67.0312 82.875V126.692C66.7672 126.799 66.5031 126.926 66.2594 127.054L65.8328 127.288C65.5484 127.433 65.2352 127.506 64.9187 127.5C64.601 127.496 64.2885 127.416 64.0047 127.266C63.6594 127.075 63.3141 126.905 62.9688 126.756V82.875H67.0312Z" fill="#DFEAEF"/>
<path d="M68.0773 130.855C72.3219 128.654 76.9941 127.506 81.7314 127.5H111.719C113.335 127.5 114.885 126.828 116.028 125.633C117.17 124.437 117.812 122.816 117.812 121.125V57.375H115.781V121.125C115.781 122.252 115.353 123.333 114.591 124.13C113.83 124.927 112.796 125.375 111.719 125.375H81.7314C76.6797 125.382 71.6974 126.606 67.1714 128.953L66.7327 129.181C66.1637 129.476 65.5366 129.627 64.9016 129.623C64.2667 129.618 63.6415 129.458 63.0764 129.155C58.4486 126.675 53.3241 125.379 48.1244 125.375H18.2812C17.2038 125.375 16.1705 124.927 15.4086 124.13C14.6468 123.333 14.2188 122.252 14.2188 121.125V57.375H12.1875V121.125C12.1875 122.816 12.8295 124.437 13.9723 125.633C15.1151 126.828 16.6651 127.5 18.2812 127.5H48.1244C52.9987 127.505 57.8022 128.721 62.14 131.047C63.0022 131.508 63.9565 131.749 64.9248 131.75C65.8652 131.751 66.7928 131.523 67.6345 131.085L68.0773 130.855Z" fill="#C3D6DD"/>
<path d="M113.75 121.125C113.75 121.689 113.536 122.229 113.155 122.628C112.774 123.026 112.257 123.25 111.719 123.25H81.7314C76.3662 123.257 71.0746 124.557 66.2675 127.049L65.8288 127.277C65.5473 127.42 65.2378 127.493 64.9248 127.489C64.6021 127.489 64.284 127.409 63.9966 127.256C59.0835 124.625 53.6436 123.252 48.1244 123.25H18.2812C17.7425 123.25 17.2259 123.026 16.8449 122.628C16.464 122.229 16.25 121.689 16.25 121.125V55.25H14.2188V121.125C14.2188 122.252 14.6468 123.333 15.4086 124.13C16.1705 124.927 17.2038 125.375 18.2812 125.375H48.1244C53.3214 125.381 58.4429 126.676 63.0683 129.155C63.6334 129.458 64.2585 129.618 64.8935 129.623C65.5285 129.627 66.1556 129.476 66.7245 129.181L67.1633 128.953C71.6918 126.605 76.677 125.38 81.7314 125.375H111.719C112.796 125.375 113.83 124.927 114.591 124.13C115.353 123.333 115.781 122.252 115.781 121.125V55.25H113.75V121.125Z" fill="#DFEAEF"/>
<path d="M36.5625 72.25C36.1613 72.2501 35.769 72.1259 35.4352 71.893L30.4688 68.425L25.5023 71.8888C25.1967 72.1021 24.8415 72.2247 24.4746 72.2435C24.1076 72.2624 23.7426 72.1767 23.4185 71.9957C23.0944 71.8148 22.8233 71.5452 22.634 71.2158C22.4447 70.8863 22.3444 70.5094 22.3438 70.125V46.75H38.5938V70.125C38.5938 70.6886 38.3797 71.2291 37.9988 71.6276C37.6179 72.0261 37.1012 72.25 36.5625 72.25Z" fill="#D6E8F2"/>
<path d="M38.5938 70.125C38.1925 70.1251 37.8002 70.0009 37.4664 69.768L32.5 66.3L27.5336 69.7638C27.228 69.9771 26.8728 70.0997 26.5058 70.1185C26.1389 70.1374 25.7739 70.0517 25.4498 69.8707C25.1256 69.6898 24.8545 69.4202 24.6653 69.0908C24.476 68.7613 24.3757 68.3844 24.375 68V46.75H40.625V68C40.625 68.5636 40.411 69.1041 40.0301 69.5026C39.6491 69.9011 39.1325 70.125 38.5938 70.125Z" fill="#F74E0C"/>
<path d="M28.4375 68V46.75H24.375V68C24.3749 68.3847 24.4747 68.7622 24.6637 69.0923C24.8527 69.4223 25.1237 69.6925 25.448 69.874C25.7722 70.0555 26.1375 70.1415 26.5048 70.1228C26.8721 70.1042 27.2277 69.9815 27.5336 69.768L28.6772 68.9711C28.5233 68.6725 28.4411 68.3392 28.4375 68Z" fill="#E03A07"/>
<path d="M56.875 80.75H26.4062V85H56.875V80.75Z" fill="#D6E8F2"/>
<path d="M56.875 89.25H26.4062V93.5H56.875V89.25Z" fill="#D6E8F2"/>
<path d="M56.875 97.75H26.4062V102H56.875V97.75Z" fill="#D6E8F2"/>
<path d="M40.625 106.25H26.4062V110.5H40.625V106.25Z" fill="#D6E8F2"/>
<path d="M103.594 80.75H73.125V85H103.594V80.75Z" fill="#D6E8F2"/>
<path d="M103.594 89.25H73.125V93.5H103.594V89.25Z" fill="#D6E8F2"/>
<path d="M103.594 97.75H73.125V102H103.594V97.75Z" fill="#D6E8F2"/>
<path d="M103.594 106.25H73.125V110.5H103.594V106.25Z" fill="#D6E8F2"/>
<path d="M48.75 106.25H44.6875V110.5H48.75V106.25Z" fill="#D6E8F2"/>
<path d="M56.875 106.25H52.8125V110.5H56.875V106.25Z" fill="#D6E8F2"/>
<path d="M67.0312 4.25H62.9688V12.75H67.0312V4.25Z" fill="#FEBC00"/>
<path d="M49.4924 8.02556L45.9741 10.1504L50.0363 17.5118L53.5546 15.3869L49.4924 8.02556Z" fill="#FEBC00"/>
<path d="M36.1099 20.473L34.0785 24.1535L41.1148 28.4038L43.1462 24.7232L36.1099 20.473Z" fill="#FEBC00"/>
<path d="M38.5938 38.25H30.4688V42.5H38.5938V38.25Z" fill="#FEBC00"/>
<path d="M99.5312 38.25H91.4062V42.5H99.5312V38.25Z" fill="#FEBC00"/>
<path d="M93.8898 20.4718L86.853 24.7211L88.8839 28.4019L95.9207 24.1526L93.8898 20.4718Z" fill="#FEBC00"/>
<path d="M80.5045 8.02667L76.4426 15.3883L79.961 17.5129L84.0229 10.1514L80.5045 8.02667Z" fill="#FEBC00"/>
<path d="M54.8438 65.875V73.338C54.8297 74.3948 55.0572 75.4399 55.5073 76.3862C55.9575 77.3324 56.6172 78.1525 57.4316 78.778C57.7917 79.0418 58.1661 79.2838 58.5528 79.5026C58.6788 79.5749 58.8067 79.6365 58.9347 79.7024C59.1805 79.8299 59.4242 79.9467 59.67 80.0487C59.8244 80.1125 59.9767 80.1741 60.1311 80.2294C60.3342 80.3037 60.5536 80.3675 60.7649 80.4249C60.9355 80.4716 61.1061 80.5247 61.2747 80.5609C61.4433 80.597 61.5773 80.6076 61.7277 80.631C62.1613 80.699 62.5993 80.7317 63.0378 80.7288C63.1008 80.7288 63.1658 80.7288 63.2288 80.7288C63.4904 80.7195 63.7514 80.6961 64.0108 80.6586C64.0656 80.6586 64.1184 80.6459 64.1733 80.6352C66.0946 80.3339 67.849 79.3224 69.1187 77.7841C70.3883 76.2457 71.089 74.2824 71.0938 72.25V64.974C71.1949 59.7672 73.1507 54.7875 76.5781 51.0106C77.6677 49.7297 78.5861 48.3 79.3081 46.7606H46.5908C47.3595 48.3778 48.3421 49.8736 49.5097 51.204C52.9863 55.2197 54.8905 60.4573 54.8438 65.875Z" fill="#D6E8F2"/>
<path d="M71.0937 65.875H58.9062C58.3675 65.875 57.8509 65.6511 57.4699 65.2526C57.089 64.8541 56.875 64.3136 56.875 63.75C56.9243 58.3287 55.0199 53.0868 51.5409 49.0684C49.5983 46.8552 48.1814 44.1942 47.4053 41.3012C46.6291 38.4082 46.5154 35.3646 47.0735 32.4171C47.6315 29.4696 48.8456 26.7011 50.6173 24.3361C52.3889 21.971 54.6683 20.076 57.2708 18.8045C59.8732 17.5331 62.7253 16.921 65.596 17.0179C68.4668 17.1148 71.2752 17.918 73.7939 19.3624C76.3125 20.8067 78.4704 22.8516 80.0926 25.3312C81.7148 27.8109 82.7557 30.6555 83.1309 33.6345C83.4673 36.3672 83.2376 39.1435 82.4574 41.7751C81.6772 44.4066 80.3648 46.8317 78.6094 48.8856C75.1819 52.6626 73.2261 57.6422 73.125 62.849V63.75C73.125 64.3136 72.911 64.8541 72.5301 65.2526C72.1491 65.6511 71.6325 65.875 71.0937 65.875Z" fill="#FEBC00"/>
<path d="M60.9375 63.75C60.9869 58.3287 59.0824 53.0868 55.6035 49.0684C53.3092 46.4647 51.752 43.2452 51.1056 39.7693C50.4592 36.2933 50.7491 32.6978 51.943 29.3843C53.1368 26.0708 55.1877 23.1696 57.8664 21.0049C60.5451 18.8401 63.7463 17.497 67.1125 17.1254C63.4063 16.6736 59.6567 17.419 56.3672 19.2616C53.0778 21.1042 50.406 23.9557 48.7109 27.4331C47.0157 30.9106 46.3783 34.8474 46.8842 38.7149C47.3901 42.5823 49.0151 46.1952 51.541 49.0684C55.0199 53.0868 56.9244 58.3287 56.875 63.75C56.875 64.3136 57.089 64.8541 57.47 65.2526C57.8509 65.6511 58.3675 65.875 58.9063 65.875H62.9688C62.43 65.875 61.9134 65.6511 61.5325 65.2526C61.1515 64.8541 60.9375 64.3136 60.9375 63.75Z" fill="#EDAA03"/>
<path d="M67.0312 63.75H62.9688V42.5C62.9689 41.9365 63.1829 41.396 63.5639 40.9976L69.6577 34.6226L72.5298 37.6274L67.0312 43.3797V63.75Z" fill="#FDFEFF"/>
<path d="M60.1319 34.4042L57.2593 37.4094L63.5633 44.0043L66.4359 40.9991L60.1319 34.4042Z" fill="#FDFEFF"/>
<path d="M59.4628 76.653C58.6484 76.0275 57.9887 75.2074 57.5386 74.2612C57.0884 73.3149 56.8609 72.2698 56.875 71.213V61.625H73.125V70.125C73.125 76.6657 66.0278 81.5065 59.4628 76.653Z" fill="#F74E0C"/>
<path d="M63.5253 76.653C62.7109 76.0275 62.0512 75.2074 61.6011 74.2612C61.1509 73.3149 60.9234 72.2698 60.9375 71.213V61.625H56.875V71.213C56.8609 72.2698 57.0884 73.3149 57.5386 74.2612C57.9887 75.2074 58.6484 76.0275 59.4628 76.653C60.5213 77.5027 61.7469 78.096 63.0512 78.3899C64.3554 78.6839 65.7058 78.6713 67.0048 78.353C65.7531 78.0203 64.5727 77.4435 63.5253 76.653Z" fill="#E03A07"/>
<path d="M36.5625 55.25C37.6843 55.25 38.5938 54.2986 38.5938 53.125C38.5938 51.9514 37.6843 51 36.5625 51C35.4407 51 34.5312 51.9514 34.5312 53.125C34.5312 54.2986 35.4407 55.25 36.5625 55.25Z" fill="#F74E0C"/>
</svg>
