<svg width="120" height="113" viewBox="0 0 120 113" fill="none" xmlns="http://www.w3.org/2000/svg">
<path d="M118 92.7188H2C1.46957 92.7188 0.960859 92.5064 0.585786 92.1284C0.210714 91.7504 0 91.2377 0 90.7031V2.01562C0 1.48105 0.210714 0.968366 0.585786 0.590363C0.960859 0.21236 1.46957 0 2 0H118C118.53 0 119.039 0.21236 119.414 0.590363C119.789 0.968366 120 1.48105 120 2.01562V90.7031C120 91.2377 119.789 91.7504 119.414 92.1284C119.039 92.5064 118.53 92.7188 118 92.7188Z" fill="#8DC640"/>
<path d="M47.166 88.6875L35.632 100.126C35.3561 100.398 35.1599 100.742 35.065 101.119C34.97 101.497 34.9801 101.893 35.094 102.265C35.2104 102.638 35.4251 102.973 35.7153 103.234C36.0054 103.494 36.3603 103.671 36.742 103.744L42.942 104.954L44.21 111.156C44.2894 111.538 44.4703 111.891 44.7335 112.177C44.9967 112.463 45.3322 112.672 45.704 112.78C46.077 112.893 46.4732 112.903 46.8514 112.809C47.2295 112.715 47.5757 112.521 47.854 112.246L61 99.205C58.0441 98.6496 55.2563 97.4107 52.8558 95.5857C50.4554 93.7607 48.5077 91.3994 47.166 88.6875Z" fill="#2BBDBE"/>
<path d="M72.834 88.6875L84.368 100.126C84.6439 100.398 84.8401 100.742 84.935 101.119C85.0299 101.497 85.0199 101.893 84.906 102.265C84.7896 102.638 84.5749 102.973 84.2847 103.234C83.9945 103.494 83.6397 103.671 83.258 103.744L77.058 104.954L75.8 111.158C75.7206 111.54 75.5397 111.893 75.2765 112.179C75.0133 112.465 74.6778 112.674 74.306 112.782C73.933 112.895 73.5368 112.905 73.1586 112.811C72.7805 112.717 72.4342 112.523 72.156 112.248L59 99.205C61.9559 98.6496 64.7437 97.4107 67.1441 95.5857C69.5446 93.7607 71.4923 91.3994 72.834 88.6875Z" fill="#2BBDBE"/>
<path d="M110 84.6562H10C9.46957 84.6562 8.96086 84.4439 8.58579 84.0659C8.21071 83.6879 8 83.1752 8 82.6406V10.0781C8 9.54355 8.21071 9.03087 8.58579 8.65286C8.96086 8.27486 9.46957 8.0625 10 8.0625H110C110.53 8.0625 111.039 8.27486 111.414 8.65286C111.789 9.03087 112 9.54355 112 10.0781V82.6406C112 83.1752 111.789 83.6879 111.414 84.0659C111.039 84.4439 110.53 84.6562 110 84.6562Z" fill="#FDFEFF"/>
<path d="M38.102 84.6562C38.3558 87.4695 39.1456 90.2069 40.428 92.7188H79.572C80.8544 90.2069 81.6442 87.4695 81.898 84.6562H38.102Z" fill="#34C759"/>
<path d="M82 82.6406C82 76.7603 79.6822 71.1208 75.5564 66.9627C71.4306 62.8047 65.8348 60.4688 60 60.4688C54.1652 60.4688 48.5694 62.8047 44.4436 66.9627C40.3178 71.1208 38 76.7603 38 82.6406C38 83.3219 38.042 83.9911 38.102 84.6562H81.902C81.958 83.9911 82 83.3219 82 82.6406Z" fill="#DFEAEF"/>
<path d="M12 82.6406V10.0781C12 9.54355 12.2107 9.03087 12.5858 8.65286C12.9609 8.27486 13.4696 8.0625 14 8.0625H10C9.46957 8.0625 8.96086 8.27486 8.58579 8.65286C8.21071 9.03087 8 9.54355 8 10.0781V82.6406C8 83.1752 8.21071 83.6879 8.58579 84.0659C8.96086 84.4439 9.46957 84.6562 10 84.6562H14C13.4696 84.6562 12.9609 84.4439 12.5858 84.0659C12.2107 83.6879 12 83.1752 12 82.6406Z" fill="#DFEAEF"/>
<path d="M60 100.781C56.4399 100.781 52.9598 99.7173 49.9997 97.724C47.0396 95.7307 44.7325 92.8975 43.3702 89.5827C42.0078 86.268 41.6513 82.6205 42.3459 79.1016C43.0404 75.5826 44.7547 72.3503 47.2721 69.8133C49.7894 67.2763 52.9967 65.5485 56.4884 64.8486C59.98 64.1486 63.5992 64.5079 66.8883 65.8809C70.1774 67.2539 72.9886 69.579 74.9664 72.5622C76.9443 75.5454 78 79.0528 78 82.6406C77.9947 87.4502 76.0966 92.0612 72.7221 95.4621C69.3476 98.863 64.7723 100.776 60 100.781Z" fill="#2BBDBE"/>
<path d="M64 96.75C60.6812 96.756 57.4256 95.8355 54.5942 94.0906C51.7628 92.3457 49.4662 89.8445 47.9592 86.8645C46.4522 83.8845 45.7935 80.542 46.0563 77.2078C46.3191 73.8736 47.4931 70.6778 49.448 67.9749C47.3381 69.5113 45.5844 71.4911 44.3081 73.7775C43.0317 76.0638 42.2632 78.6022 42.0555 81.2172C41.8479 83.8322 42.2061 86.4614 43.1055 88.9232C44.0048 91.385 45.4239 93.6207 47.2645 95.4757C49.1051 97.3307 51.3234 98.7608 53.7661 99.6671C56.2088 100.574 58.8177 100.935 61.4124 100.725C64.0071 100.516 66.5258 99.7415 68.7945 98.4552C71.0631 97.1689 73.0275 95.4014 74.552 93.2751C71.4893 95.5318 67.794 96.7488 64 96.75Z" fill="#0F9D9E"/>
<path d="M60 90.7031C64.4183 90.7031 68 87.0934 68 82.6406C68 78.1878 64.4183 74.5781 60 74.5781C55.5817 74.5781 52 78.1878 52 82.6406C52 87.0934 55.5817 90.7031 60 90.7031Z" fill="#8DC640"/>
<path d="M64 86.6719C61.8783 86.6719 59.8434 85.8224 58.3432 84.3104C56.8429 82.7984 56 80.7477 56 78.6094C56.003 77.4683 56.2485 76.3412 56.72 75.3037C55.5389 75.8376 54.5042 76.6526 53.7049 77.6788C52.9056 78.7049 52.3656 79.9114 52.1314 81.1944C51.8973 82.4774 51.9759 83.7986 52.3606 85.0442C52.7453 86.2898 53.4245 87.4226 54.3398 88.345C55.2551 89.2675 56.3791 89.952 57.6151 90.3397C58.851 90.7274 60.1619 90.8066 61.435 90.5706C62.7081 90.3347 63.9052 89.7905 64.9234 88.9849C65.9416 88.1794 66.7503 87.1366 67.28 85.9462C66.2506 86.4214 65.1322 86.6688 64 86.6719Z" fill="#34C759"/>
<path d="M88 24.1875H32V28.2188H88V24.1875Z" fill="#DFEAEF"/>
<path d="M88 32.25H32V36.2812H88V32.25Z" fill="#DFEAEF"/>
<path d="M88 40.3125H32V44.3438H88V40.3125Z" fill="#DFEAEF"/>
<path d="M88 48.375H60V52.4062H88V48.375Z" fill="#DFEAEF"/>
<path d="M88 56.4375H72V60.4688H88V56.4375Z" fill="#DFEAEF"/>
</svg>
