<svg width="550" height="150" viewBox="0 0 550 150" fill="none" xmlns="http://www.w3.org/2000/svg">
<path d="M83 88.8564C104.523 76.43 118.389 60.1527 113.971 52.5C109.553 44.8473 88.5232 48.7172 67 61.1436C45.4768 73.57 31.6106 89.8473 36.0289 97.5C40.4471 105.153 61.4768 101.283 83 88.8564Z" stroke="#BA0C2F" stroke-width="3"/>
<path d="M36 103C39.3137 103 42 100.314 42 97C42 93.6863 39.3137 91 36 91C32.6863 91 30 93.6863 30 97C30 100.314 32.6863 103 36 103Z" fill="#BA0C2F"/>
<path d="M36 91.5C39.0376 91.5 41.5 93.9624 41.5 97C41.5 100.038 39.0376 102.5 36 102.5C32.9624 102.5 30.5 100.038 30.5 97C30.5 93.9624 32.9624 91.5 36 91.5Z" stroke="black" stroke-opacity="0.52"/>
<path d="M114 59C117.314 59 120 56.3137 120 53C120 49.6863 117.314 47 114 47C110.686 47 108 49.6863 108 53C108 56.3137 110.686 59 114 59Z" fill="#003882"/>
<path d="M114 47.5C117.038 47.5 119.5 49.9624 119.5 53C119.5 56.0376 117.038 58.5 114 58.5C110.962 58.5 108.5 56.0376 108.5 53C108.5 49.9624 110.962 47.5 114 47.5Z" stroke="black" stroke-opacity="0.52"/>
<path d="M75 58.5L85.5 64L89.5 66.5L91 79.5C88.6596 88 73.5 92 73.5 92C73.5 92 60 88.1034 60 79L60.5 66.5L65 63.5517L75 58.5Z" fill="#FFC72C"/>
<path d="M75.25 76.4348C78.1495 76.4348 80.5 74.3227 80.5 71.7174C80.5 69.112 78.1495 67 75.25 67C72.3505 67 70 69.112 70 71.7174C70 74.3227 72.3505 76.4348 75.25 76.4348Z" fill="white"/>
<path d="M72.25 75.7609H78.25L77.5 79.8043H73L72.25 75.7609Z" fill="white"/>
<path d="M76.75 80.4783H73.75V82.5H76.75V80.4783Z" fill="white"/>
<path d="M67 88.8564C88.5232 101.283 109.553 105.153 113.971 97.5C118.389 89.8473 104.523 73.57 83 61.1436C61.4768 48.7172 40.4471 44.8473 36.0289 52.5C31.6106 60.1527 45.4768 76.43 67 88.8564Z" stroke="#003882" stroke-width="3"/>
<path d="M59 75C59 99.8528 66.1634 120 75 120C83.8366 120 91 99.8528 91 75C91 50.1472 83.8366 30 75 30C66.1634 30 59 50.1472 59 75Z" stroke="#FFC72C" stroke-width="3"/>
<path d="M114 103C117.314 103 120 100.314 120 97C120 93.6863 117.314 91 114 91C110.686 91 108 93.6863 108 97C108 100.314 110.686 103 114 103Z" fill="#003882"/>
<path d="M114 103C117.314 103 120 100.314 120 97C120 93.6863 117.314 91 114 91C110.686 91 108 93.6863 108 97C108 100.314 110.686 103 114 103Z" fill="black" fill-opacity="0.2"/>
<path d="M114 91.5C117.038 91.5 119.5 93.9624 119.5 97C119.5 100.038 117.038 102.5 114 102.5C110.962 102.5 108.5 100.038 108.5 97C108.5 93.9624 110.962 91.5 114 91.5Z" stroke="black" stroke-opacity="0.52"/>
<path d="M36 59C39.3137 59 42 56.3137 42 53C42 49.6863 39.3137 47 36 47C32.6863 47 30 49.6863 30 53C30 56.3137 32.6863 59 36 59Z" fill="#BA0C2F"/>
<path d="M36 47.5C39.0376 47.5 41.5 49.9624 41.5 53C41.5 56.0376 39.0376 58.5 36 58.5C32.9624 58.5 30.5 56.0376 30.5 53C30.5 49.9624 32.9624 47.5 36 47.5Z" stroke="black" stroke-opacity="0.52"/>
<path d="M75 36C78.3137 36 81 33.3137 81 30C81 26.6863 78.3137 24 75 24C71.6863 24 69 26.6863 69 30C69 33.3137 71.6863 36 75 36Z" fill="#FFC72C"/>
<path d="M75 24.5C78.0376 24.5 80.5 26.9624 80.5 30C80.5 33.0376 78.0376 35.5 75 35.5C71.9624 35.5 69.5 33.0376 69.5 30C69.5 26.9624 71.9624 24.5 75 24.5Z" stroke="black" stroke-opacity="0.52"/>
<path d="M75 126C78.3137 126 81 123.314 81 120C81 116.686 78.3137 114 75 114C71.6863 114 69 116.686 69 120C69 123.314 71.6863 126 75 126Z" fill="#FFC72C"/>
<path d="M75 114.5C78.0376 114.5 80.5 116.962 80.5 120C80.5 123.038 78.0376 125.5 75 125.5C71.9624 125.5 69.5 123.038 69.5 120C69.5 116.962 71.9624 114.5 75 114.5Z" stroke="black" stroke-opacity="0.52"/>
<path d="M159.114 79.4901C156.544 79.4901 154.333 78.9455 152.482 77.8565C150.641 76.7566 149.225 75.232 148.234 73.2827C147.254 71.3333 146.764 69.09 146.764 66.5526C146.764 63.9825 147.26 61.7282 148.251 59.7898C149.253 57.8404 150.674 56.3213 152.514 55.2322C154.355 54.1323 156.544 53.5824 159.081 53.5824C161.27 53.5824 163.187 53.9799 164.831 54.7749C166.475 55.5698 167.777 56.6861 168.735 58.1236C169.693 59.5611 170.222 61.2491 170.32 63.1875H163.753C163.568 61.9351 163.078 60.9278 162.283 60.1655C161.499 59.3923 160.469 59.0057 159.195 59.0057C158.117 59.0057 157.175 59.2997 156.369 59.8878C155.574 60.465 154.954 61.3089 154.507 62.4197C154.061 63.5305 153.837 64.8755 153.837 66.4545C153.837 68.0554 154.055 69.4167 154.491 70.5384C154.937 71.66 155.563 72.5149 156.369 73.103C157.175 73.6911 158.117 73.9851 159.195 73.9851C159.99 73.9851 160.704 73.8217 161.335 73.495C161.978 73.1683 162.506 72.6946 162.92 72.0739C163.344 71.4422 163.622 70.6854 163.753 69.8033H170.32C170.211 71.7199 169.688 73.4079 168.751 74.8672C167.826 76.3156 166.546 77.4482 164.913 78.2649C163.279 79.0817 161.346 79.4901 159.114 79.4901ZM186.112 79.4901C183.574 79.4901 181.38 78.951 179.529 77.8729C177.688 76.7839 176.267 75.2701 175.265 73.3317C174.263 71.3823 173.762 69.1226 173.762 66.5526C173.762 63.9607 174.263 61.6955 175.265 59.7571C176.267 57.8078 177.688 56.294 179.529 55.2159C181.38 54.1269 183.574 53.5824 186.112 53.5824C188.649 53.5824 190.838 54.1269 192.678 55.2159C194.53 56.294 195.956 57.8078 196.958 59.7571C197.96 61.6955 198.461 63.9607 198.461 66.5526C198.461 69.1226 197.96 71.3823 196.958 73.3317C195.956 75.2701 194.53 76.7839 192.678 77.8729C190.838 78.951 188.649 79.4901 186.112 79.4901ZM186.144 74.0994C187.299 74.0994 188.262 73.7727 189.036 73.1193C189.809 72.455 190.392 71.5511 190.784 70.4077C191.186 69.2642 191.388 67.9628 191.388 66.5036C191.388 65.0443 191.186 63.7429 190.784 62.5994C190.392 61.456 189.809 60.5521 189.036 59.8878C188.262 59.2235 187.299 58.8913 186.144 58.8913C184.979 58.8913 183.999 59.2235 183.204 59.8878C182.42 60.5521 181.826 61.456 181.423 62.5994C181.031 63.7429 180.835 65.0443 180.835 66.5036C180.835 67.9628 181.031 69.2642 181.423 70.4077C181.826 71.5511 182.42 72.455 183.204 73.1193C183.999 73.7727 184.979 74.0994 186.144 74.0994ZM209.945 64.4943V79H202.986V53.9091H209.618V58.3359H209.912C210.468 56.8767 211.399 55.7223 212.705 54.8729C214.012 54.0125 215.597 53.5824 217.459 53.5824C219.201 53.5824 220.721 53.9635 222.017 54.7259C223.312 55.4882 224.32 56.5772 225.039 57.9929C225.757 59.3977 226.117 61.0748 226.117 63.0241V79H219.158V64.2656C219.169 62.7301 218.777 61.5322 217.982 60.6719C217.187 59.8007 216.092 59.3651 214.698 59.3651C213.762 59.3651 212.934 59.5665 212.215 59.9695C211.508 60.3724 210.952 60.9605 210.549 61.7337C210.157 62.496 209.956 63.4162 209.945 64.4943ZM243.036 79.4901C240.455 79.4901 238.233 78.9673 236.371 77.9219C234.52 76.8655 233.093 75.3736 232.091 73.446C231.089 71.5076 230.588 69.2152 230.588 66.5689C230.588 63.9879 231.089 61.7228 232.091 59.7734C233.093 57.8241 234.503 56.3049 236.322 55.2159C238.152 54.1269 240.297 53.5824 242.758 53.5824C244.413 53.5824 245.954 53.8492 247.381 54.3828C248.819 54.9055 250.071 55.6951 251.138 56.7514C252.216 57.8078 253.055 59.1364 253.654 60.7372C254.253 62.3272 254.552 64.1894 254.552 66.3239V68.2351H233.365V63.9226H248.002C248.002 62.9207 247.784 62.0331 247.348 61.2599C246.913 60.4867 246.308 59.8823 245.535 59.4467C244.773 59.0002 243.885 58.777 242.873 58.777C241.816 58.777 240.88 59.022 240.063 59.5121C239.257 59.9912 238.625 60.6392 238.168 61.456C237.711 62.2618 237.476 63.1603 237.466 64.1513V68.2514C237.466 69.4929 237.694 70.5656 238.152 71.4695C238.62 72.3733 239.279 73.0703 240.128 73.5604C240.978 74.0504 241.985 74.2955 243.15 74.2955C243.923 74.2955 244.631 74.1866 245.274 73.9688C245.916 73.7509 246.466 73.4242 246.924 72.9886C247.381 72.553 247.73 72.0194 247.969 71.3878L254.405 71.8125C254.078 73.3589 253.409 74.7093 252.396 75.8636C251.394 77.0071 250.098 77.9001 248.508 78.5426C246.929 79.1742 245.105 79.4901 243.036 79.4901ZM270.43 79.4901C267.86 79.4901 265.649 78.9455 263.798 77.8565C261.958 76.7566 260.542 75.232 259.551 73.2827C258.571 71.3333 258.081 69.09 258.081 66.5526C258.081 63.9825 258.576 61.7282 259.567 59.7898C260.569 57.8404 261.99 56.3213 263.831 55.2322C265.671 54.1323 267.86 53.5824 270.397 53.5824C272.586 53.5824 274.503 53.9799 276.147 54.7749C277.792 55.5698 279.093 56.6861 280.051 58.1236C281.01 59.5611 281.538 61.2491 281.636 63.1875H275.069C274.884 61.9351 274.394 60.9278 273.599 60.1655C272.815 59.3923 271.786 59.0057 270.512 59.0057C269.434 59.0057 268.492 59.2997 267.686 59.8878C266.891 60.465 266.27 61.3089 265.824 62.4197C265.377 63.5305 265.154 64.8755 265.154 66.4545C265.154 68.0554 265.372 69.4167 265.807 70.5384C266.254 71.66 266.88 72.5149 267.686 73.103C268.492 73.6911 269.434 73.9851 270.512 73.9851C271.307 73.9851 272.02 73.8217 272.652 73.495C273.294 73.1683 273.822 72.6946 274.236 72.0739C274.661 71.4422 274.939 70.6854 275.069 69.8033H281.636C281.527 71.7199 281.004 73.4079 280.068 74.8672C279.142 76.3156 277.863 77.4482 276.229 78.2649C274.596 79.0817 272.663 79.4901 270.43 79.4901ZM299.437 53.9091V59.1364H284.327V53.9091H299.437ZM287.758 47.8977H294.716V71.2898C294.716 71.9323 294.814 72.4332 295.01 72.7926C295.206 73.1411 295.479 73.3861 295.827 73.5277C296.187 73.6693 296.6 73.7401 297.069 73.7401C297.395 73.7401 297.722 73.7128 298.049 73.6584C298.376 73.593 298.626 73.544 298.8 73.5114L299.895 78.6896C299.546 78.7985 299.056 78.9238 298.425 79.0653C297.793 79.2178 297.025 79.3104 296.121 79.343C294.444 79.4084 292.974 79.1851 291.711 78.6733C290.458 78.1615 289.484 77.3665 288.787 76.2884C288.09 75.2102 287.747 73.849 287.758 72.2045V47.8977ZM311.125 79.4737C309.524 79.4737 308.098 79.196 306.845 78.6406C305.593 78.0743 304.602 77.2412 303.872 76.1413C303.154 75.0305 302.794 73.6475 302.794 71.9922C302.794 70.5982 303.05 69.4276 303.562 68.4801C304.074 67.5327 304.771 66.7704 305.653 66.1932C306.535 65.616 307.537 65.1804 308.659 64.8864C309.791 64.5923 310.978 64.3854 312.22 64.2656C313.679 64.1132 314.855 63.9716 315.748 63.8409C316.641 63.6993 317.289 63.4924 317.692 63.2202C318.095 62.9479 318.296 62.545 318.296 62.0114V61.9134C318.296 60.8788 317.97 60.0784 317.316 59.5121C316.674 58.9458 315.759 58.6626 314.572 58.6626C313.32 58.6626 312.323 58.9403 311.583 59.4957C310.842 60.0402 310.352 60.7263 310.112 61.554L303.676 61.0312C304.003 59.5066 304.646 58.1889 305.604 57.0781C306.562 55.9564 307.798 55.0961 309.312 54.4972C310.837 53.8873 312.601 53.5824 314.605 53.5824C315.999 53.5824 317.333 53.7457 318.607 54.0724C319.892 54.3991 321.03 54.9055 322.021 55.5916C323.023 56.2777 323.812 57.1598 324.389 58.2379C324.967 59.3052 325.255 60.5848 325.255 62.0767V79H318.656V75.5206H318.46C318.057 76.3047 317.518 76.9962 316.843 77.5952C316.167 78.1832 315.356 78.6461 314.409 78.9837C313.461 79.3104 312.367 79.4737 311.125 79.4737ZM313.118 74.6712C314.142 74.6712 315.046 74.4697 315.83 74.0668C316.614 73.6529 317.229 73.0975 317.676 72.4006C318.122 71.7036 318.345 70.9141 318.345 70.032V67.3693C318.128 67.5109 317.828 67.6416 317.447 67.7614C317.077 67.8703 316.657 67.9737 316.189 68.0717C315.721 68.1589 315.253 68.2405 314.784 68.3168C314.316 68.3821 313.891 68.442 313.51 68.4964C312.693 68.6162 311.98 68.8068 311.37 69.0682C310.76 69.3295 310.287 69.6835 309.949 70.13C309.611 70.5656 309.443 71.1101 309.443 71.7635C309.443 72.7109 309.786 73.4351 310.472 73.9361C311.169 74.4261 312.051 74.6712 313.118 74.6712Z" fill="#003882"/>
<path d="M341.991 79.4901C339.421 79.4901 337.21 78.9455 335.358 77.8565C333.518 76.7566 332.102 75.232 331.111 73.2827C330.131 71.3333 329.641 69.09 329.641 66.5526C329.641 63.9825 330.137 61.7282 331.128 59.7898C332.13 57.8404 333.551 56.3213 335.391 55.2322C337.232 54.1323 339.421 53.5824 341.958 53.5824C344.147 53.5824 346.064 53.9799 347.708 54.7749C349.352 55.5698 350.654 56.6861 351.612 58.1236C352.57 59.5611 353.099 61.2491 353.197 63.1875H346.63C346.445 61.9351 345.955 60.9278 345.16 60.1655C344.376 59.3923 343.346 59.0057 342.072 59.0057C340.994 59.0057 340.052 59.2997 339.246 59.8878C338.451 60.465 337.831 61.3089 337.384 62.4197C336.938 63.5305 336.714 64.8755 336.714 66.4545C336.714 68.0554 336.932 69.4167 337.368 70.5384C337.814 71.66 338.44 72.5149 339.246 73.103C340.052 73.6911 340.994 73.9851 342.072 73.9851C342.867 73.9851 343.581 73.8217 344.212 73.495C344.855 73.1683 345.383 72.6946 345.797 72.0739C346.221 71.4422 346.499 70.6854 346.63 69.8033H353.197C353.088 71.7199 352.565 73.4079 351.628 74.8672C350.703 76.3156 349.423 77.4482 347.79 78.2649C346.156 79.0817 344.223 79.4901 341.991 79.4901ZM364.611 45.5455V79H357.652V45.5455H364.611ZM386.275 68.3168V53.9091H393.234V79H386.553V74.4425H386.292C385.725 75.9126 384.783 77.0942 383.466 77.9872C382.159 78.8802 380.564 79.3267 378.68 79.3267C377.002 79.3267 375.527 78.9455 374.253 78.1832C372.979 77.4209 371.982 76.3374 371.263 74.9325C370.555 73.5277 370.196 71.8452 370.185 69.8849V53.9091H377.144V68.6435C377.155 70.1245 377.552 71.2952 378.336 72.1555C379.121 73.0159 380.171 73.446 381.489 73.446C382.328 73.446 383.112 73.2554 383.841 72.8743C384.571 72.4822 385.159 71.9051 385.606 71.1428C386.063 70.3804 386.286 69.4384 386.275 68.3168ZM398.931 79V45.5455H405.89V58.1236H406.102C406.407 57.4484 406.848 56.7623 407.425 56.0653C408.013 55.3575 408.776 54.7694 409.712 54.3011C410.66 53.822 411.836 53.5824 413.241 53.5824C415.07 53.5824 416.758 54.0616 418.305 55.0199C419.851 55.9673 421.087 57.3994 422.013 59.3161C422.938 61.2218 423.401 63.6122 423.401 66.4872C423.401 69.286 422.949 71.6491 422.045 73.5767C421.152 75.4934 419.933 76.9472 418.386 77.9382C416.851 78.9183 415.13 79.4084 413.224 79.4084C411.874 79.4084 410.725 79.1851 409.778 78.7386C408.841 78.2921 408.073 77.7313 407.474 77.0561C406.875 76.37 406.418 75.6785 406.102 74.9815H405.792V79H398.931ZM405.743 66.4545C405.743 67.9465 405.95 69.2479 406.364 70.3587C406.777 71.4695 407.376 72.3352 408.161 72.956C408.945 73.5658 409.897 73.8707 411.019 73.8707C412.152 73.8707 413.11 73.5604 413.894 72.9396C414.678 72.308 415.272 71.4368 415.675 70.326C416.089 69.2043 416.295 67.9138 416.295 66.4545C416.295 65.0062 416.094 63.732 415.691 62.6321C415.288 61.5322 414.695 60.6719 413.911 60.0511C413.126 59.4304 412.163 59.12 411.019 59.12C409.887 59.12 408.928 59.4195 408.144 60.0185C407.371 60.6174 406.777 61.4669 406.364 62.5668C405.95 63.6667 405.743 64.9626 405.743 66.4545Z" fill="#BA0C2F"/>
<path d="M148.759 105V96.2727H152.202C152.861 96.2727 153.423 96.3906 153.889 96.6264C154.358 96.8594 154.714 97.1903 154.959 97.6193C155.206 98.0455 155.33 98.5469 155.33 99.1236C155.33 99.7031 155.205 100.202 154.955 100.619C154.705 101.034 154.342 101.352 153.868 101.574C153.396 101.795 152.825 101.906 152.155 101.906H149.849V100.423H151.857C152.209 100.423 152.501 100.375 152.734 100.278C152.967 100.182 153.141 100.037 153.254 99.8438C153.371 99.6506 153.429 99.4105 153.429 99.1236C153.429 98.8338 153.371 98.5895 153.254 98.3906C153.141 98.1918 152.966 98.0412 152.73 97.9389C152.497 97.8338 152.203 97.7812 151.848 97.7812H150.604V105H148.759ZM153.472 101.028L155.641 105H153.604L151.482 101.028H153.472ZM156.634 105V96.2727H162.514V97.794H158.479V99.8736H162.212V101.395H158.479V103.479H162.531V105H156.634ZM167.075 105H163.981V96.2727H167.1C167.978 96.2727 168.734 96.4474 169.368 96.7969C170.001 97.1435 170.488 97.642 170.829 98.2926C171.173 98.9432 171.345 99.7216 171.345 100.628C171.345 101.537 171.173 102.318 170.829 102.972C170.488 103.625 169.998 104.126 169.359 104.476C168.723 104.825 167.961 105 167.075 105ZM165.826 103.419H166.998C167.544 103.419 168.002 103.322 168.375 103.129C168.75 102.933 169.031 102.631 169.218 102.222C169.409 101.81 169.504 101.278 169.504 100.628C169.504 99.983 169.409 99.456 169.218 99.0469C169.031 98.6378 168.751 98.3366 168.379 98.1435C168.007 97.9503 167.548 97.8537 167.002 97.8537H165.826V103.419ZM172.712 105V96.2727H178.592V97.794H174.557V99.8736H178.29V101.395H174.557V103.479H178.609V105H172.712ZM182.837 105V96.2727H188.717V97.794H184.682V99.8736H188.415V101.395H184.682V103.479H188.734V105H182.837ZM194.919 98.7827C194.885 98.4389 194.738 98.1719 194.48 97.9815C194.221 97.7912 193.87 97.696 193.427 97.696C193.126 97.696 192.872 97.7386 192.664 97.8239C192.457 97.9062 192.298 98.0213 192.187 98.169C192.079 98.3168 192.025 98.4844 192.025 98.6719C192.02 98.8281 192.052 98.9645 192.123 99.081C192.197 99.1974 192.298 99.2983 192.426 99.3835C192.554 99.4659 192.701 99.5384 192.869 99.6009C193.037 99.6605 193.216 99.7116 193.406 99.7543L194.19 99.9418C194.571 100.027 194.92 100.141 195.238 100.283C195.556 100.425 195.832 100.599 196.065 100.807C196.298 101.014 196.478 101.259 196.606 101.54C196.737 101.821 196.804 102.143 196.806 102.507C196.804 103.041 196.667 103.504 196.397 103.896C196.13 104.286 195.744 104.588 195.238 104.804C194.735 105.017 194.129 105.124 193.419 105.124C192.714 105.124 192.1 105.016 191.578 104.8C191.058 104.584 190.652 104.264 190.359 103.841C190.069 103.415 189.917 102.888 189.903 102.26H191.689C191.708 102.553 191.792 102.797 191.94 102.993C192.091 103.186 192.291 103.332 192.541 103.432C192.794 103.528 193.079 103.577 193.397 103.577C193.71 103.577 193.981 103.531 194.211 103.44C194.444 103.349 194.625 103.223 194.752 103.061C194.88 102.899 194.944 102.713 194.944 102.503C194.944 102.307 194.886 102.142 194.77 102.009C194.656 101.875 194.488 101.761 194.267 101.668C194.048 101.574 193.779 101.489 193.461 101.412L192.511 101.173C191.775 100.994 191.194 100.714 190.768 100.334C190.342 99.9531 190.13 99.4403 190.133 98.7955C190.13 98.267 190.271 97.8054 190.555 97.4105C190.842 97.0156 191.235 96.7074 191.735 96.4858C192.235 96.2642 192.804 96.1534 193.44 96.1534C194.088 96.1534 194.653 96.2642 195.136 96.4858C195.622 96.7074 196 97.0156 196.27 97.4105C196.539 97.8054 196.679 98.2628 196.687 98.7827H194.919ZM197.715 97.794V96.2727H204.883V97.794H202.211V105H200.387V97.794H197.715ZM206.501 105H204.524L207.537 96.2727H209.914L212.923 105H210.946L208.76 98.267H208.691L206.501 105ZM206.377 101.57H211.048V103.01H206.377V101.57ZM217.067 105H213.973V96.2727H217.093C217.971 96.2727 218.726 96.4474 219.36 96.7969C219.993 97.1435 220.48 97.642 220.821 98.2926C221.165 98.9432 221.337 99.7216 221.337 100.628C221.337 101.537 221.165 102.318 220.821 102.972C220.48 103.625 219.99 104.126 219.351 104.476C218.715 104.825 217.953 105 217.067 105ZM215.819 103.419H216.99C217.536 103.419 217.995 103.322 218.367 103.129C218.742 102.933 219.023 102.631 219.211 102.222C219.401 101.81 219.496 101.278 219.496 100.628C219.496 99.983 219.401 99.456 219.211 99.0469C219.023 98.6378 218.743 98.3366 218.371 98.1435C217.999 97.9503 217.54 97.8537 216.995 97.8537H215.819V103.419ZM228.094 96.2727H229.94V101.94C229.94 102.577 229.788 103.134 229.484 103.611C229.183 104.088 228.761 104.46 228.218 104.727C227.675 104.991 227.043 105.124 226.322 105.124C225.597 105.124 224.964 104.991 224.421 104.727C223.879 104.46 223.457 104.088 223.156 103.611C222.854 103.134 222.704 102.577 222.704 101.94V96.2727H224.549V101.783C224.549 102.115 224.621 102.411 224.766 102.669C224.914 102.928 225.121 103.131 225.388 103.278C225.656 103.426 225.967 103.5 226.322 103.5C226.68 103.5 226.991 103.426 227.255 103.278C227.522 103.131 227.728 102.928 227.873 102.669C228.021 102.411 228.094 102.115 228.094 101.783V96.2727ZM232.962 105H230.985L233.998 96.2727H236.375L239.384 105H237.407L235.221 98.267H235.152L232.962 105ZM232.838 101.57H237.509V103.01H232.838V101.57ZM240.434 105V96.2727H242.279V103.479H246.021V105H240.434ZM253.114 105H250.02V96.2727H253.14C254.017 96.2727 254.773 96.4474 255.407 96.7969C256.04 97.1435 256.527 97.642 256.868 98.2926C257.212 98.9432 257.384 99.7216 257.384 100.628C257.384 101.537 257.212 102.318 256.868 102.972C256.527 103.625 256.037 104.126 255.398 104.476C254.762 104.825 254 105 253.114 105ZM251.865 103.419H253.037C253.583 103.419 254.042 103.322 254.414 103.129C254.789 102.933 255.07 102.631 255.257 102.222C255.448 101.81 255.543 101.278 255.543 100.628C255.543 99.983 255.448 99.456 255.257 99.0469C255.07 98.6378 254.79 98.3366 254.418 98.1435C254.046 97.9503 253.587 97.8537 253.042 97.8537H251.865V103.419ZM258.751 105V96.2727H264.631V97.794H260.596V99.8736H264.329V101.395H260.596V103.479H264.648V105H258.751ZM276.576 99.3281H274.71C274.675 99.0866 274.606 98.8722 274.501 98.6847C274.396 98.4943 274.261 98.3324 274.096 98.1989C273.931 98.0653 273.741 97.9631 273.525 97.892C273.312 97.821 273.08 97.7855 272.83 97.7855C272.379 97.7855 271.985 97.8977 271.65 98.1222C271.315 98.3437 271.055 98.6676 270.87 99.0938C270.685 99.517 270.593 100.031 270.593 100.636C270.593 101.259 270.685 101.781 270.87 102.205C271.058 102.628 271.319 102.947 271.654 103.163C271.989 103.379 272.377 103.487 272.817 103.487C273.065 103.487 273.293 103.455 273.504 103.389C273.717 103.324 273.906 103.229 274.07 103.104C274.235 102.976 274.371 102.821 274.479 102.639C274.59 102.457 274.667 102.25 274.71 102.017L276.576 102.026C276.528 102.426 276.407 102.812 276.214 103.185C276.023 103.554 275.766 103.885 275.442 104.178C275.121 104.467 274.738 104.697 274.292 104.868C273.849 105.036 273.347 105.119 272.788 105.119C272.009 105.119 271.313 104.943 270.7 104.591C270.089 104.239 269.606 103.729 269.251 103.061C268.898 102.393 268.722 101.585 268.722 100.636C268.722 99.6847 268.901 98.875 269.259 98.2074C269.617 97.5398 270.103 97.0312 270.717 96.6818C271.33 96.3295 272.021 96.1534 272.788 96.1534C273.293 96.1534 273.762 96.2244 274.194 96.3665C274.629 96.5085 275.013 96.7159 275.349 96.9886C275.684 97.2585 275.957 97.5895 276.167 97.9815C276.38 98.3736 276.516 98.8224 276.576 99.3281ZM277.899 105V96.2727H279.744V103.479H283.486V105H277.899ZM290.098 96.2727H291.944V101.94C291.944 102.577 291.792 103.134 291.488 103.611C291.186 104.088 290.765 104.46 290.222 104.727C289.679 104.991 289.047 105.124 288.326 105.124C287.601 105.124 286.968 104.991 286.425 104.727C285.882 104.46 285.461 104.088 285.159 103.611C284.858 103.134 284.708 102.577 284.708 101.94V96.2727H286.553V101.783C286.553 102.115 286.625 102.411 286.77 102.669C286.918 102.928 287.125 103.131 287.392 103.278C287.659 103.426 287.971 103.5 288.326 103.5C288.684 103.5 288.995 103.426 289.259 103.278C289.526 103.131 289.732 102.928 289.877 102.669C290.025 102.411 290.098 102.115 290.098 101.783V96.2727ZM293.462 105V96.2727H296.956C297.598 96.2727 298.134 96.3679 298.562 96.5582C298.991 96.7486 299.314 97.0128 299.53 97.3509C299.746 97.6861 299.854 98.0724 299.854 98.5099C299.854 98.8509 299.786 99.1506 299.649 99.4091C299.513 99.6648 299.325 99.875 299.087 100.04C298.851 100.202 298.581 100.317 298.277 100.385V100.47C298.609 100.484 298.92 100.578 299.21 100.751C299.503 100.925 299.74 101.168 299.922 101.48C300.104 101.79 300.195 102.159 300.195 102.588C300.195 103.051 300.08 103.464 299.849 103.828C299.622 104.189 299.286 104.474 298.839 104.685C298.393 104.895 297.844 105 297.19 105H293.462ZM295.307 103.491H296.811C297.325 103.491 297.7 103.393 297.936 103.197C298.172 102.999 298.29 102.734 298.29 102.405C298.29 102.163 298.232 101.95 298.115 101.766C297.999 101.581 297.832 101.436 297.616 101.331C297.403 101.226 297.149 101.173 296.854 101.173H295.307V103.491ZM295.307 99.9247H296.675C296.928 99.9247 297.152 99.8807 297.348 99.7926C297.547 99.7017 297.703 99.5739 297.817 99.4091C297.933 99.2443 297.991 99.0469 297.991 98.8168C297.991 98.5014 297.879 98.2472 297.655 98.054C297.433 97.8608 297.118 97.7642 296.709 97.7642H295.307V99.9247ZM301.395 105V96.2727H307.276V97.794H303.24V99.8736H306.973V101.395H303.24V103.479H307.293V105H301.395ZM313.477 98.7827C313.443 98.4389 313.297 98.1719 313.038 97.9815C312.78 97.7912 312.429 97.696 311.986 97.696C311.685 97.696 311.43 97.7386 311.223 97.8239C311.016 97.9062 310.857 98.0213 310.746 98.169C310.638 98.3168 310.584 98.4844 310.584 98.6719C310.578 98.8281 310.611 98.9645 310.682 99.081C310.756 99.1974 310.857 99.2983 310.984 99.3835C311.112 99.4659 311.26 99.5384 311.428 99.6009C311.595 99.6605 311.774 99.7116 311.964 99.7543L312.749 99.9418C313.129 100.027 313.479 100.141 313.797 100.283C314.115 100.425 314.391 100.599 314.624 100.807C314.857 101.014 315.037 101.259 315.165 101.54C315.295 101.821 315.362 102.143 315.365 102.507C315.362 103.041 315.226 103.504 314.956 103.896C314.689 104.286 314.303 104.588 313.797 104.804C313.294 105.017 312.688 105.124 311.977 105.124C311.273 105.124 310.659 105.016 310.136 104.8C309.616 104.584 309.21 104.264 308.918 103.841C308.628 103.415 308.476 102.888 308.462 102.26H310.247C310.267 102.553 310.351 102.797 310.499 102.993C310.649 103.186 310.849 103.332 311.099 103.432C311.352 103.528 311.638 103.577 311.956 103.577C312.268 103.577 312.54 103.531 312.77 103.44C313.003 103.349 313.183 103.223 313.311 103.061C313.439 102.899 313.503 102.713 313.503 102.503C313.503 102.307 313.445 102.142 313.328 102.009C313.214 101.875 313.047 101.761 312.825 101.668C312.607 101.574 312.338 101.489 312.02 101.412L311.07 101.173C310.334 100.994 309.753 100.714 309.327 100.334C308.901 99.9531 308.689 99.4403 308.692 98.7955C308.689 98.267 308.83 97.8054 309.114 97.4105C309.401 97.0156 309.794 96.7074 310.294 96.4858C310.794 96.2642 311.362 96.1534 311.999 96.1534C312.646 96.1534 313.212 96.2642 313.695 96.4858C314.18 96.7074 314.558 97.0156 314.828 97.4105C315.098 97.8054 315.237 98.2628 315.246 98.7827H313.477ZM322.477 105H319.384V96.2727H322.503C323.381 96.2727 324.136 96.4474 324.77 96.7969C325.403 97.1435 325.891 97.642 326.232 98.2926C326.575 98.9432 326.747 99.7216 326.747 100.628C326.747 101.537 326.575 102.318 326.232 102.972C325.891 103.625 325.401 104.126 324.761 104.476C324.125 104.825 323.364 105 322.477 105ZM321.229 103.419H322.401C322.946 103.419 323.405 103.322 323.777 103.129C324.152 102.933 324.433 102.631 324.621 102.222C324.811 101.81 324.906 101.278 324.906 100.628C324.906 99.983 324.811 99.456 324.621 99.0469C324.433 98.6378 324.153 98.3366 323.781 98.1435C323.409 97.9503 322.95 97.8537 322.405 97.8537H321.229V103.419ZM328.114 105V96.2727H333.995V97.794H329.959V99.8736H333.692V101.395H329.959V103.479H334.012V105H328.114ZM345.939 99.3281H344.073C344.039 99.0866 343.969 98.8722 343.864 98.6847C343.759 98.4943 343.624 98.3324 343.459 98.1989C343.294 98.0653 343.104 97.9631 342.888 97.892C342.675 97.821 342.444 97.7855 342.194 97.7855C341.742 97.7855 341.348 97.8977 341.013 98.1222C340.678 98.3437 340.418 98.6676 340.233 99.0938C340.049 99.517 339.956 100.031 339.956 100.636C339.956 101.259 340.049 101.781 340.233 102.205C340.421 102.628 340.682 102.947 341.017 103.163C341.353 103.379 341.74 103.487 342.181 103.487C342.428 103.487 342.657 103.455 342.867 103.389C343.08 103.324 343.269 103.229 343.434 103.104C343.598 102.976 343.735 102.821 343.843 102.639C343.953 102.457 344.03 102.25 344.073 102.017L345.939 102.026C345.891 102.426 345.77 102.812 345.577 103.185C345.387 103.554 345.13 103.885 344.806 104.178C344.485 104.467 344.101 104.697 343.655 104.868C343.212 105.036 342.711 105.119 342.151 105.119C341.373 105.119 340.676 104.943 340.063 104.591C339.452 104.239 338.969 103.729 338.614 103.061C338.262 102.393 338.086 101.585 338.086 100.636C338.086 99.6847 338.265 98.875 338.623 98.2074C338.98 97.5398 339.466 97.0312 340.08 96.6818C340.694 96.3295 341.384 96.1534 342.151 96.1534C342.657 96.1534 343.125 96.2244 343.557 96.3665C343.992 96.5085 344.377 96.7159 344.712 96.9886C345.047 97.2585 345.32 97.5895 345.53 97.9815C345.743 98.3736 345.88 98.8224 345.939 99.3281ZM349.108 96.2727V105H347.262V96.2727H349.108ZM350.626 105V96.2727H356.506V97.794H352.471V99.8736H356.204V101.395H352.471V103.479H356.523V105H350.626ZM354.435 95.4886L353.579 94.4489L352.722 95.4886H351.175V95.429L352.901 93.554H354.252L355.982 95.429V95.4886H354.435ZM365.273 96.2727V105H363.679L359.882 99.5071H359.819V105H357.973V96.2727H359.593L363.36 101.761H363.436V96.2727H365.273ZM374.498 99.3281H372.631C372.597 99.0866 372.528 98.8722 372.423 98.6847C372.317 98.4943 372.183 98.3324 372.018 98.1989C371.853 98.0653 371.663 97.9631 371.447 97.892C371.234 97.821 371.002 97.7855 370.752 97.7855C370.3 97.7855 369.907 97.8977 369.572 98.1222C369.237 98.3437 368.977 98.6676 368.792 99.0938C368.607 99.517 368.515 100.031 368.515 100.636C368.515 101.259 368.607 101.781 368.792 102.205C368.979 102.628 369.241 102.947 369.576 103.163C369.911 103.379 370.299 103.487 370.739 103.487C370.987 103.487 371.215 103.455 371.425 103.389C371.638 103.324 371.827 103.229 371.992 103.104C372.157 102.976 372.293 102.821 372.401 102.639C372.512 102.457 372.589 102.25 372.631 102.017L374.498 102.026C374.45 102.426 374.329 102.812 374.136 103.185C373.945 103.554 373.688 103.885 373.364 104.178C373.043 104.467 372.66 104.697 372.214 104.868C371.771 105.036 371.269 105.119 370.71 105.119C369.931 105.119 369.235 104.943 368.621 104.591C368.011 104.239 367.528 103.729 367.173 103.061C366.82 102.393 366.644 101.585 366.644 100.636C366.644 99.6847 366.823 98.875 367.181 98.2074C367.539 97.5398 368.025 97.0312 368.638 96.6818C369.252 96.3295 369.942 96.1534 370.71 96.1534C371.215 96.1534 371.684 96.2244 372.116 96.3665C372.55 96.5085 372.935 96.7159 373.271 96.9886C373.606 97.2585 373.879 97.5895 374.089 97.9815C374.302 98.3736 374.438 98.8224 374.498 99.3281ZM377.666 96.2727V105H375.821V96.2727H377.666ZM380.689 105H378.711L381.724 96.2727H384.102L387.11 105H385.133L382.947 98.267H382.879L380.689 105ZM380.565 101.57H385.235V103.01H380.565V101.57ZM392.696 98.7827C392.662 98.4389 392.516 98.1719 392.257 97.9815C391.999 97.7912 391.648 97.696 391.205 97.696C390.903 97.696 390.649 97.7386 390.442 97.8239C390.234 97.9062 390.075 98.0213 389.964 98.169C389.857 98.3168 389.803 98.4844 389.803 98.6719C389.797 98.8281 389.83 98.9645 389.901 99.081C389.974 99.1974 390.075 99.2983 390.203 99.3835C390.331 99.4659 390.479 99.5384 390.646 99.6009C390.814 99.6605 390.993 99.7116 391.183 99.7543L391.967 99.9418C392.348 100.027 392.697 100.141 393.016 100.283C393.334 100.425 393.609 100.599 393.842 100.807C394.075 101.014 394.256 101.259 394.384 101.54C394.514 101.821 394.581 102.143 394.584 102.507C394.581 103.041 394.445 103.504 394.175 103.896C393.908 104.286 393.521 104.588 393.016 104.804C392.513 105.017 391.906 105.124 391.196 105.124C390.491 105.124 389.878 105.016 389.355 104.8C388.835 104.584 388.429 104.264 388.136 103.841C387.847 103.415 387.695 102.888 387.68 102.26H389.466C389.486 102.553 389.57 102.797 389.717 102.993C389.868 103.186 390.068 103.332 390.318 103.432C390.571 103.528 390.857 103.577 391.175 103.577C391.487 103.577 391.759 103.531 391.989 103.44C392.222 103.349 392.402 103.223 392.53 103.061C392.658 102.899 392.722 102.713 392.722 102.503C392.722 102.307 392.663 102.142 392.547 102.009C392.433 101.875 392.266 101.761 392.044 101.668C391.825 101.574 391.557 101.489 391.239 101.412L390.288 101.173C389.553 100.994 388.972 100.714 388.545 100.334C388.119 99.9531 387.908 99.4403 387.911 98.7955C387.908 98.267 388.048 97.8054 388.332 97.4105C388.619 97.0156 389.013 96.7074 389.513 96.4858C390.013 96.2642 390.581 96.1534 391.217 96.1534C391.865 96.1534 392.43 96.2642 392.913 96.4858C393.399 96.7074 393.777 97.0156 394.047 97.4105C394.317 97.8054 394.456 98.2628 394.464 98.7827H392.696ZM401.696 105H398.602V96.2727H401.722C402.599 96.2727 403.355 96.4474 403.989 96.7969C404.622 97.1435 405.109 97.642 405.45 98.2926C405.794 98.9432 405.966 99.7216 405.966 100.628C405.966 101.537 405.794 102.318 405.45 102.972C405.109 103.625 404.619 104.126 403.98 104.476C403.344 104.825 402.582 105 401.696 105ZM400.447 103.419H401.619C402.165 103.419 402.624 103.322 402.996 103.129C403.371 102.933 403.652 102.631 403.839 102.222C404.03 101.81 404.125 101.278 404.125 100.628C404.125 99.983 404.03 99.456 403.839 99.0469C403.652 98.6378 403.372 98.3366 403 98.1435C402.628 97.9503 402.169 97.8537 401.624 97.8537H400.447V103.419ZM408.345 105H406.368L409.38 96.2727H411.758L414.767 105H412.789L410.603 98.267H410.535L408.345 105ZM408.221 101.57H412.892V103.01H408.221V101.57ZM418.594 105V96.2727H422.089C422.731 96.2727 423.266 96.3679 423.695 96.5582C424.124 96.7486 424.447 97.0128 424.663 97.3509C424.879 97.6861 424.987 98.0724 424.987 98.5099C424.987 98.8509 424.918 99.1506 424.782 99.4091C424.646 99.6648 424.458 99.875 424.219 100.04C423.984 100.202 423.714 100.317 423.41 100.385V100.47C423.742 100.484 424.053 100.578 424.343 100.751C424.636 100.925 424.873 101.168 425.055 101.48C425.237 101.79 425.327 102.159 425.327 102.588C425.327 103.051 425.212 103.464 424.982 103.828C424.755 104.189 424.418 104.474 423.972 104.685C423.526 104.895 422.977 105 422.323 105H418.594ZM420.44 103.491H421.944C422.458 103.491 422.833 103.393 423.069 103.197C423.305 102.999 423.423 102.734 423.423 102.405C423.423 102.163 423.364 101.95 423.248 101.766C423.131 101.581 422.965 101.436 422.749 101.331C422.536 101.226 422.282 101.173 421.987 101.173H420.44V103.491ZM420.44 99.9247H421.808C422.06 99.9247 422.285 99.8807 422.481 99.7926C422.68 99.7017 422.836 99.5739 422.95 99.4091C423.066 99.2443 423.124 99.0469 423.124 98.8168C423.124 98.5014 423.012 98.2472 422.788 98.054C422.566 97.8608 422.251 97.7642 421.842 97.7642H420.44V99.9247ZM428.032 105H426.055L429.068 96.2727H431.446L434.454 105H432.477L430.291 98.267H430.223L428.032 105ZM427.909 101.57H432.579V103.01H427.909V101.57ZM435.505 105V96.2727H437.35V99.8736H441.096V96.2727H442.936V105H441.096V101.395H437.35V105H435.505ZM446.303 96.2727V105H444.458V96.2727H446.303ZM449.325 105H447.348L450.361 96.2727H452.739L455.747 105H453.77L451.584 98.267H451.516L449.325 105ZM449.202 101.57H453.872V103.01H449.202V101.57Z" fill="#555555"/>
</svg>
