<svg width="331" height="320" viewBox="0 0 331 320" fill="none" xmlns="http://www.w3.org/2000/svg">
<g opacity="0.6">
<path d="M175 300C252.32 300 315 237.32 315 160C315 82.6801 252.32 20 175 20C97.6801 20 35 82.6801 35 160C35 237.32 97.6801 300 175 300Z" stroke="#E2E8F0" stroke-width="1.5" stroke-dasharray="8 8"/>
<path d="M175 270C235.751 270 285 220.751 285 160C285 99.2487 235.751 50 175 50C114.249 50 65 99.2487 65 160C65 220.751 114.249 270 175 270Z" stroke="#F1F5F9"/>
</g>
<mask id="mask0_0_1" style="mask-type:luminance" maskUnits="userSpaceOnUse" x="111" y="70" width="138" height="141">
<path d="M160 80H200V115L245 185C247.076 187.269 248.404 190.121 248.805 193.17C249.206 196.219 248.66 199.317 247.241 202.045C245.822 204.774 243.599 207 240.873 208.423C238.147 209.846 235.049 210.396 232 210H128C124.951 210.396 121.853 209.846 119.127 208.423C116.401 207 114.178 204.774 112.759 202.045C111.34 199.317 110.794 196.219 111.195 193.17C111.596 190.121 112.924 187.269 115 185L160 115V80Z" fill="white"/>
<path d="M204 70H156C152.686 70 150 72.6863 150 76C150 79.3137 152.686 82 156 82H204C207.314 82 210 79.3137 210 76C210 72.6863 207.314 70 204 70Z" fill="white"/>
</mask>
<g mask="url(#mask0_0_1)">
<path opacity="0.6" d="M100 160C125 180 155 140 180 160C205 180 235 140 260 160V220H100V160Z" fill="#C2410C"/>
<path d="M100 170C125 150 155 190 180 170C205 150 235 190 260 170V220H100V170Z" fill="url(#paint0_linear_0_1)"/>
<path opacity="0.9" d="M150 186C153.314 186 156 183.314 156 180C156 176.686 153.314 174 150 174C146.686 174 144 176.686 144 180C144 183.314 146.686 186 150 186Z" fill="white"/>
<path opacity="0.9" d="M175 194.5C177.485 194.5 179.5 192.485 179.5 190C179.5 187.515 177.485 185.5 175 185.5C172.515 185.5 170.5 187.515 170.5 190C170.5 192.485 172.515 194.5 175 194.5Z" stroke="white" stroke-width="2"/>
<path opacity="0.9" d="M195 172C198.866 172 202 168.866 202 165C202 161.134 198.866 158 195 158C191.134 158 188 161.134 188 165C188 168.866 191.134 172 195 172Z" fill="white"/>
<path opacity="0.8" d="M215 183C216.657 183 218 181.657 218 180C218 178.343 216.657 177 215 177C213.343 177 212 178.343 212 180C212 181.657 213.343 183 215 183Z" stroke="white" stroke-width="1.5"/>
<path opacity="0.8" d="M165 148C166.657 148 168 146.657 168 145C168 143.343 166.657 142 165 142C163.343 142 162 143.343 162 145C162 146.657 163.343 148 165 148Z" fill="white"/>
<path opacity="0.8" d="M205 140C207.761 140 210 137.761 210 135C210 132.239 207.761 130 205 130C202.239 130 200 132.239 200 135C200 137.761 202.239 140 205 140Z" stroke="white" stroke-width="2"/>
</g>
<mask id="mask1_0_1" style="mask-type:luminance" maskUnits="userSpaceOnUse" x="0" y="0" width="331" height="320">
<path d="M331 0H0V320H331V0Z" fill="white"/>
<path d="M160 80H200V115L245 185C247.076 187.269 248.404 190.121 248.805 193.17C249.206 196.219 248.66 199.317 247.241 202.045C245.822 204.774 243.599 207 240.873 208.423C238.147 209.846 235.049 210.396 232 210H128C124.951 210.396 121.853 209.846 119.127 208.423C116.401 207 114.178 204.774 112.759 202.045C111.34 199.317 110.794 196.219 111.195 193.17C111.596 190.121 112.924 187.269 115 185L160 115V80Z" fill="black"/>
<path d="M204 70H156C152.686 70 150 72.6863 150 76C150 79.3137 152.686 82 156 82H204C207.314 82 210 79.3137 210 76C210 72.6863 207.314 70 204 70Z" fill="black"/>
</mask>
<g mask="url(#mask1_0_1)">
<path d="M108.388 44.1451C100.431 44.1451 92.8008 47.3058 87.1747 52.9319C81.5486 58.558 78.3879 66.1886 78.3879 74.1451V254.145C78.3879 262.102 81.5486 269.732 87.1747 275.358C92.8008 280.984 100.431 284.145 108.388 284.145C116.344 284.145 123.975 280.984 129.601 275.358C135.227 269.732 138.388 262.102 138.388 254.145V244.145H188.388C201.52 244.145 214.524 241.559 226.656 236.533C238.789 231.508 249.813 224.142 259.099 214.856C268.384 205.57 275.75 194.546 280.776 182.413C285.801 170.281 288.388 157.277 288.388 144.145C288.388 131.013 285.801 118.009 280.776 105.877C275.75 93.7442 268.384 82.7203 259.099 73.4344C249.813 64.1485 238.789 56.7826 226.656 51.7571C214.524 46.7317 201.52 44.1451 188.388 44.1451H108.388Z" fill="#1E3A8A"/>
</g>
<g filter="url(#filter0_f_0_1)">
<path d="M180 5C180 18.3333 186.667 25 200 25C186.667 25 180 31.6667 180 45C180 31.6667 173.333 25 160 25C173.333 25 180 18.3333 180 5Z" fill="url(#paint1_linear_0_1)"/>
</g>
<path opacity="0.8" d="M160 52.5C161.381 52.5 162.5 51.3807 162.5 50C162.5 48.6193 161.381 47.5 160 47.5C158.619 47.5 157.5 48.6193 157.5 50C157.5 51.3807 158.619 52.5 160 52.5Z" fill="#FBBF24"/>
<path opacity="0.6" d="M200 56.5C200.828 56.5 201.5 55.8284 201.5 55C201.5 54.1716 200.828 53.5 200 53.5C199.172 53.5 198.5 54.1716 198.5 55C198.5 55.8284 199.172 56.5 200 56.5Z" fill="#FBBF24"/>
<path opacity="0.9" d="M210 37C211.105 37 212 36.1046 212 35C212 33.8954 211.105 33 210 33C208.895 33 208 33.8954 208 35C208 36.1046 208.895 37 210 37Z" fill="#FBBF24"/>
<defs>
<filter id="filter0_f_0_1" x="155" y="0" width="50" height="50" filterUnits="userSpaceOnUse" color-interpolation-filters="sRGB">
<feFlood flood-opacity="0" result="BackgroundImageFix"/>
<feBlend mode="normal" in="SourceGraphic" in2="BackgroundImageFix" result="shape"/>
<feGaussianBlur stdDeviation="2.5" result="effect1_foregroundBlur_0_1"/>
</filter>
<linearGradient id="paint0_linear_0_1" x1="100" y1="164.227" x2="100" y2="220" gradientUnits="userSpaceOnUse">
<stop stop-color="#FBBF24"/>
<stop offset="1" stop-color="#EA580C"/>
</linearGradient>
<linearGradient id="paint1_linear_0_1" x1="160" y1="5" x2="200" y2="45" gradientUnits="userSpaceOnUse">
<stop stop-color="#FEF08A"/>
<stop offset="1" stop-color="#F59E0B"/>
</linearGradient>
</defs>
</svg>
